<svg data-name="Layer 1" xmlns="http://www.w3.org/2000/svg" viewBox="0 0 122.88 122.88"><path d="M61.44 0A61.46 61.46 0 1 1 18 18 61.23 61.23 0 0 1 61.44 0zm3.16 55.18a7.05 7.05 0 0 1 2.91 2.74h9.9a2.71 2.71 0 0 1 .34-2.68 2.68 2.68 0 0 1 3.74-.48l5.89 4.55a2.64 2.64 0 0 1 1 2.08v.06a2.65 2.65 0 0 1-1 2.09l-5.89 4.54A2.66 2.66 0 0 1 77.41 65H67.5a7 7 0 1 1-10-9.35l.08-13.54a2.66 2.66 0 0 1-3.1-4.11l4.67-5.78a2.67 2.67 0 0 1 2-1h.06a2.65 2.65 0 0 1 2.2 1.08l4.41 6a2.66 2.66 0 0 1-3.13 4.05l-.09 12.83zm22 43.94a3 3 0 0 1-5.12 3l-2.21-3.82a3 3 0 0 1 5.12-3l2.21 3.83zM36.27 23.75a3 3 0 0 1 5.12-2.94l2.21 3.82a3 3 0 1 1-5.12 2.94l-2.21-3.82zm65.8 57.74a3 3 0 1 1-2.94 5.12l-3.82-2.21a3 3 0 0 1 2.94-5.12l3.82 2.21zM20.8 41.39a3 3 0 1 1 3-5.12l3.83 2.21a3 3 0 0 1-3 5.12l-3.83-2.21zm85.86 17.08a3 3 0 0 1 0 5.93h-4.42a3 3 0 0 1 0-5.93zm-90.44 5.94a3 3 0 1 1 0-5.93h4.42a3 3 0 0 1 0 5.93zm82.91-28.14a3 3 0 0 1 2.94 5.12l-3.82 2.21a3 3 0 0 1-2.94-5.12l3.82-2.21zM23.75 86.61a3 3 0 1 1-2.94-5.12l3.82-2.21a3 3 0 0 1 2.94 5.12l-3.82 2.21zm57.74-65.8a3 3 0 0 1 5.12 2.94l-2.21 3.82a3 3 0 1 1-5.12-2.94l2.21-3.82zm-40.1 81.27a3 3 0 0 1-5.12-3l2.21-3.83a3 3 0 0 1 5.12 3l-2.21 3.82zm17.08-85.86a3 3 0 0 1 5.93 0v4.42a3 3 0 0 1-5.93 0v-4.42zm5.93 90.44a3 3 0 1 1-5.93 0v-4.42a3 3 0 0 1 5.93 0v4.42zM100 22.89a54.51 54.51 0 1 0 16 38.55 54.37 54.37 0 0 0-16-38.55z"/></svg>