<svg width="178" height="27" fill="none" xmlns="http://www.w3.org/2000/svg"><mask id="a" style="mask-type:luminance" maskUnits="userSpaceOnUse" x="0" y="0" width="178" height="27"><path d="M178 0H0v27h178V0z" fill="#fff"/><path d="M1.656 25V2.6h4.288l9.536 15.808h-2.272L22.584 2.6h4.256l.064 22.4H22.04l-.032-14.944h.896l-7.488 12.576H13.08L5.432 10.056H6.52V25H1.656zm90.371.256c-1.834 0-3.466-.384-4.896-1.152a8.967 8.967 0 0 1-3.36-3.136c-.81-1.344-1.216-2.87-1.216-4.576 0-1.728.406-3.253 1.216-4.576a8.642 8.642 0 0 1 3.36-3.136c1.43-.768 3.062-1.152 4.896-1.152 1.814 0 3.435.384 4.864 1.152 1.43.747 2.55 1.781 3.36 3.104.811 1.323 1.216 2.859 1.216 4.608 0 1.707-.405 3.232-1.216 4.576-.81 1.323-1.93 2.368-3.36 3.136-1.43.768-3.05 1.152-4.864 1.152zm0-4.096c.832 0 1.579-.192 2.24-.576a4.127 4.127 0 0 0 1.568-1.632c.384-.725.576-1.579.576-2.56 0-1.003-.192-1.856-.576-2.56a4.127 4.127 0 0 0-1.568-1.632c-.661-.384-1.408-.576-2.24-.576-.832 0-1.578.192-2.24.576a4.354 4.354 0 0 0-1.6 1.632c-.384.704-.576 1.557-.576 2.56 0 .981.192 1.835.576 2.56a4.354 4.354 0 0 0 1.6 1.632c.662.384 1.408.576 2.24.576zm74.657 4.096c-1.835 0-3.467-.384-4.896-1.152a8.967 8.967 0 0 1-3.36-3.136c-.811-1.344-1.216-2.87-1.216-4.576 0-1.728.405-3.253 1.216-4.576a8.642 8.642 0 0 1 3.36-3.136c1.429-.768 3.061-1.152 4.896-1.152 1.813 0 3.434.384 4.864 1.152 1.429.747 2.549 1.781 3.36 3.104.81 1.323 1.216 2.859 1.216 4.608 0 1.707-.406 3.232-1.216 4.576-.811 1.323-1.931 2.368-3.36 3.136-1.43.768-3.051 1.152-4.864 1.152zm0-4.096c.832 0 1.578-.192 2.24-.576a4.13 4.13 0 0 0 1.568-1.632c.384-.725.576-1.579.576-2.56 0-1.003-.192-1.856-.576-2.56a4.13 4.13 0 0 0-1.568-1.632c-.662-.384-1.408-.576-2.24-.576-.832 0-1.579.192-2.24.576a4.348 4.348 0 0 0-1.6 1.632c-.384.704-.576 1.557-.576 2.56 0 .981.192 1.835.576 2.56a4.348 4.348 0 0 0 1.6 1.632c.661.384 1.408.576 2.24.576zM42.426 25v-3.36l-.32-.736v-6.016c0-1.067-.33-1.899-.992-2.496-.64-.597-1.631-.896-2.975-.896a8.55 8.55 0 0 0-2.72.448c-.875.277-1.622.661-2.24 1.152l-1.793-3.488c.94-.661 2.07-1.173 3.393-1.536a15.18 15.18 0 0 1 4.031-.544c2.624 0 4.662.619 6.112 1.856 1.451 1.237 2.177 3.168 2.177 5.792V25h-4.672zm-5.248.256c-1.343 0-2.495-.224-3.456-.672-.96-.47-1.696-1.099-2.207-1.888-.512-.79-.768-1.675-.768-2.656 0-1.024.245-1.92.736-2.688.511-.768 1.311-1.365 2.4-1.792 1.087-.448 2.506-.672 4.255-.672h4.577V17.8h-4.033c-1.173 0-1.983.192-2.431.576-.427.384-.64.864-.64 1.44 0 .64.245 1.152.736 1.536.511.363 1.205.544 2.08.544.831 0 1.578-.192 2.24-.576.66-.405 1.14-.992 1.44-1.76l.767 2.304c-.362 1.11-1.024 1.952-1.983 2.528-.96.576-2.198.864-3.712.864zm36.29 0c-1.856 0-3.51-.373-4.96-1.12-1.45-.768-2.592-1.824-3.424-3.168-.81-1.344-1.216-2.87-1.216-4.576 0-1.728.405-3.253 1.216-4.576.832-1.344 1.973-2.39 3.424-3.136 1.45-.768 3.104-1.152 4.96-1.152 1.813 0 3.392.384 4.736 1.152a6.843 6.843 0 0 1 2.976 3.232l-3.872 2.08c-.448-.81-1.014-1.408-1.696-1.792a4.257 4.257 0 0 0-2.176-.576c-.854 0-1.622.192-2.304.576a4.282 4.282 0 0 0-1.632 1.632c-.384.704-.576 1.557-.576 2.56 0 1.003.192 1.856.576 2.56.405.704.95 1.248 1.632 1.632.682.384 1.45.576 2.304.576a4.45 4.45 0 0 0 2.176-.544c.682-.384 1.248-.992 1.696-1.824l3.872 2.112c-.64 1.387-1.632 2.464-2.976 3.232-1.344.747-2.923 1.12-4.736 1.12zM105.156 25V2.6h9.696c2.005 0 3.733.33 5.184.992 1.451.64 2.571 1.568 3.36 2.784.789 1.216 1.184 2.667 1.184 4.352 0 1.664-.395 3.104-1.184 4.32-.789 1.216-1.909 2.155-3.36 2.816-1.451.64-3.179.96-5.184.96h-6.816l2.304-2.336V25h-5.184zm5.184-7.936-2.304-2.464h6.528c1.6 0 2.795-.341 3.584-1.024.789-.683 1.184-1.632 1.184-2.848 0-1.237-.395-2.197-1.184-2.88-.789-.683-1.984-1.024-3.584-1.024h-6.528l2.304-2.464v12.704zM148.867 25V1.256h4.992V25h-4.992zM51.617 25V7.784h4.768v4.864l-.672-1.408c.511-1.216 1.333-2.133 2.463-2.752 1.131-.64 2.507-.96 4.128-.96v4.608a5.853 5.853 0 0 0-.576-.032 4.398 4.398 0 0 0-.544-.032c-1.365 0-2.474.395-3.328 1.184-.831.768-1.248 1.973-1.248 3.616V25h-4.991zm84.473.256c-1.835 0-3.467-.384-4.896-1.152a8.967 8.967 0 0 1-3.36-3.136c-.811-1.344-1.216-2.87-1.216-4.576 0-1.728.405-3.253 1.216-4.576a8.642 8.642 0 0 1 3.36-3.136c1.429-.768 3.061-1.152 4.896-1.152 1.813 0 3.434.384 4.864 1.152 1.429.747 2.549 1.781 3.36 3.104.81 1.323 1.216 2.859 1.216 4.608 0 1.707-.406 3.232-1.216 4.576-.811 1.323-1.931 2.368-3.36 3.136-1.43.768-3.051 1.152-4.864 1.152zm0-4.096c.832 0 1.578-.192 2.24-.576a4.13 4.13 0 0 0 1.568-1.632c.384-.725.576-1.579.576-2.56 0-1.003-.192-1.856-.576-2.56a4.13 4.13 0 0 0-1.568-1.632c-.662-.384-1.408-.576-2.24-.576-.832 0-1.579.192-2.24.576a4.348 4.348 0 0 0-1.6 1.632c-.384.704-.576 1.557-.576 2.56 0 .981.192 1.835.576 2.56a4.348 4.348 0 0 0 1.6 1.632c.661.384 1.408.576 2.24.576z" fill="#000"/></mask><g mask="url(#a)"><path d="M1.656 25h-1v1h1v-1zm0-22.4v-1h-1v1h1zm4.288 0 .856-.517L6.51 1.6h-.565v1zm9.536 15.808v1h1.771l-.915-1.517-.856.517zm-2.272 0-.86-.51-.896 1.51h1.756v-1zM22.584 2.6v-1h-.57l-.29.49.86.51zm4.256 0 1-.003-.003-.997h-.997v1zm.064 22.4v1h1.003l-.003-1.003-1 .003zm-4.864 0-1 .002.002.998h.998v-1zm-.032-14.944v-1h-1.002l.002 1.002 1-.002zm.896 0 .86.512.9-1.512h-1.76v1zm-7.488 12.576v1h.568l.291-.488-.859-.512zm-2.336 0-.854.52.292.48h.562v-1zM5.432 10.056v-1H3.653l.925 1.52.854-.52zm1.088 0h1v-1h-1v1zM6.52 25v1h1v-1h-1zm-3.864 0V2.6h-2V25h2zm-1-21.4h4.288v-2H1.656v2zm3.432-.483 9.536 15.807 1.712-1.032L6.8 2.083 5.088 3.117zM15.48 17.408h-2.272v2h2.272v-2zm-1.412 1.51L23.444 3.11l-1.72-1.02-9.376 15.808 1.72 1.02zM22.584 3.6h4.256v-2h-4.256v2zm3.256-.997.064 22.4 2-.006-.064-22.4-2 .006zM26.904 24H22.04v2h4.864v-2zm-3.864.998-.032-14.944-2 .004.032 14.944 2-.004zm-1.032-13.942h.896v-2h-.896v2zm.037-1.512L14.557 22.12l1.718 1.024 7.488-12.576-1.718-1.024zm-6.629 12.088H13.08v2h2.336v-2zm-1.482.48L6.286 9.536l-1.708 1.04 7.648 12.576 1.708-1.04zM5.432 11.056H6.52v-2H5.432v2zm.088-1V25h2V10.056h-2zM6.52 24H1.656v2H6.52v-2zm35.907 1h-1v1h1v-1zm0-3.36h1v-.208l-.083-.19-.918.398zm-.32-.736h-1v.208l.082.19.917-.398zm-.992-8.512-.683.731.006.006.006.005.67-.742zm-5.697-.448.303.953.007-.002.007-.002-.316-.949zm-2.24 1.152-.889.457.557 1.083.954-.756-.621-.784zm-1.791-3.488-.576-.817-.711.5.397.774.89-.457zM47.099 25v1h1v-1h-1zm-13.377-.416-.439.898.008.004.009.004.422-.906zm-2.24-7.232-.832-.555-.005.008-.005.009.843.538zm2.4-1.792.366.931.007-.003.008-.003-.38-.925zm8.833-.672h1v-1h-1v1zm0 2.912v1h1v-1h-1zm-6.465.576-.65-.76-.01.009-.009.008.67.743zm.096 2.976-.616.788.019.014.02.014.578-.816zm4.32-.032.503.865.01-.006.01-.006-.523-.853zm1.44-1.76.95-.316-.877-2.63-1.005 2.584.932.362zm.768 2.304.951.31.103-.313-.105-.313-.949.316zM43.426 25v-3.36h-2V25h2zm-.082-3.759-.32-.736-1.835.798.32.736 1.835-.798zm-.238-.337v-6.016h-2v6.016h2zm0-6.016c0-1.289-.409-2.414-1.321-3.238l-1.34 1.484c.41.37.661.91.661 1.754h2zm-1.31-3.227c-.902-.843-2.192-1.165-3.657-1.165v2c1.222 0 1.916.275 2.293.627l1.365-1.462zm-3.657-1.165a9.551 9.551 0 0 0-3.037.5l.633 1.897a7.551 7.551 0 0 1 2.404-.397v-2zm-3.023.495c-.972.308-1.831.744-2.559 1.322l1.243 1.566c.51-.403 1.143-.735 1.92-.982l-.604-1.906zm-1.048 1.648-1.792-3.488-1.779.914 1.792 3.488 1.779-.914zm-2.105-2.213c.827-.584 1.848-1.052 3.08-1.39l-.529-1.928c-1.413.387-2.654.943-3.704 1.683l1.152 1.634zm3.08-1.39a14.18 14.18 0 0 1 3.767-.508v-2a16.18 16.18 0 0 0-4.296.58l.529 1.928zm3.767-.508c2.476 0 4.252.583 5.464 1.617l1.297-1.522c-1.69-1.441-3.988-2.095-6.76-2.095v2zm5.464 1.617c1.152.983 1.825 2.584 1.825 5.031h2c0-2.801-.78-5.062-2.528-6.553l-1.297 1.522zm1.825 5.031V25h2v-9.824h-2zm1 8.824h-4.672v2h4.672v-2zm-9.92.256c-1.236 0-2.237-.206-3.034-.578L33.3 25.49c1.123.524 2.426.766 3.879.766v-2zm-3.017-.57c-.82-.401-1.408-.917-1.809-1.534l-1.678 1.088c.624.961 1.508 1.705 2.608 2.242l.879-1.796zm-1.809-1.534c-.402-.62-.607-1.315-.607-2.112h-2c0 1.166.308 2.242.93 3.2l1.677-1.088zm-.607-2.112c0-.857.204-1.562.58-2.15l-1.686-1.076c-.606.948-.893 2.035-.893 3.226h2zm.569-2.133c.371-.558.984-1.044 1.933-1.416l-.73-1.862c-1.228.482-2.215 1.19-2.868 2.168l1.665 1.11zm1.948-1.422c.924-.38 2.2-.597 3.876-.597v-2c-1.823 0-3.385.232-4.637.747l.761 1.85zm3.876-.597h4.575v-2H38.14v2zm3.575-1V17.8h2v-2.912h-2zm1 1.912h-4.032v2h4.032v-2zm-4.032 0c-1.21 0-2.344.183-3.082.817l1.301 1.518c.158-.135.646-.335 1.781-.335v-2zm-3.1.833a2.856 2.856 0 0 0-.971 2.183h2a.86.86 0 0 1 .309-.697l-1.339-1.486zm-.971 2.183c0 .938.379 1.744 1.12 2.324l1.232-1.576c-.241-.188-.352-.406-.352-.748h-2zm1.158 2.352c.735.521 1.655.728 2.657.728v-2c-.746 0-1.213-.156-1.502-.36l-1.155 1.632zm2.657.728c.993 0 1.916-.23 2.743-.711l-1.005-1.73c-.495.288-1.066.441-1.738.441v2zm2.763-.723c.86-.527 1.477-1.292 1.85-2.25l-1.864-.725c-.225.577-.568.986-1.031 1.27l1.045 1.705zm-.031-2.297.768 2.304 1.897-.632-.768-2.304-1.897.632zm.766 1.677c-.291.891-.804 1.535-1.548 1.982l1.029 1.715c1.176-.706 1.986-1.748 2.42-3.075l-1.901-.622zm-1.548 1.982c-.759.455-1.802.721-3.197.721v2c1.634 0 3.065-.31 4.226-1.006l-1.029-1.715zM51.616 25h-1v1h1v-1zm0-17.216v-1h-1v1h1zm4.769 0h1v-1h-1v1zm0 4.864-.903.43 1.903-.43h-1zm-.672-1.408-.922-.388-.174.414.193.405.902-.431zm2.463-2.752.48.877.007-.003.006-.004-.492-.87zm4.128-.96h1v-1h-1v1zm0 4.608-.099.995 1.1.11v-1.105h-1zm-.576-.032-.123.992.061.008h.063v-1zM56.608 25v1h1v-1h-1zm-3.991 0V7.784h-2V25h2zm-1-16.216h4.768v-2h-4.768v2zm3.768-1v4.864h2V7.784h-2zm1.902 4.433-.672-1.408-1.805.862.672 1.408 1.805-.862zm-.653-.589c.427-1.013 1.095-1.755 2.023-2.263l-.96-1.754c-1.335.73-2.309 1.822-2.906 3.241l1.843.776zm2.035-2.27c.948-.536 2.145-.83 3.636-.83v-2c-1.752 0-3.307.346-4.621 1.09l.985 1.74zm2.636-1.83v4.608h2V7.528h-2zm1.099 3.613a6.818 6.818 0 0 0-.676-.037v2c.13 0 .289.008.477.027l.199-1.99zm-.552-.03a5.393 5.393 0 0 0-.667-.039v2c.155 0 .294.009.42.024l.248-1.984zm-.667-.039c-1.57 0-2.938.46-4.008 1.45l1.358 1.469c.637-.59 1.49-.919 2.65-.919v-2zm-4.008 1.45c-1.114 1.03-1.569 2.556-1.569 4.35h2c0-1.491.378-2.374.927-2.881l-1.357-1.47zm-1.569 4.35V25h2v-8.128h-2zm1 7.128h-4.991v2h4.992v-2zm11.9.136-.468.884.01.005.458-.889zm-3.424-3.168-.857.517.007.01.85-.527zm0-9.152-.85-.526-.003.003.853.523zm3.424-3.136.457.89.01-.006-.467-.884zm9.696 0-.496.868.01.006.486-.874zm2.976 3.232.473.88.824-.442-.387-.852-.91.414zm-3.872 2.08-.876.484.478.865.871-.468-.473-.881zM75.612 12.2l-.502.865.011.007.49-.872zM69.5 13.832l-.867-.499-.006.01-.005.01.878.479zm0 5.12-.878.479.005.01.006.01.867-.499zm6.112 1.664.48.877.01-.005-.49-.872zm1.696-1.824.479-.878-.883-.481-.477.885.88.474zm3.872 2.112.908.42.392-.85-.821-.448-.48.878zm-2.976 3.232.485.874.01-.006-.495-.868zm-4.736.12c-1.72 0-3.212-.345-4.503-1.01l-.915 1.78c1.61.828 3.425 1.23 5.418 1.23v-2zm-4.492-1.004c-1.3-.688-2.307-1.623-3.042-2.81l-1.7 1.052c.929 1.501 2.205 2.678 3.806 3.526l.936-1.768zm-3.036-2.8c-.709-1.175-1.072-2.519-1.072-4.06h-2c0 1.872.447 3.58 1.36 5.093l1.712-1.034zm-1.072-4.06c0-1.565.365-2.905 1.068-4.053l-1.705-1.046c-.918 1.498-1.363 3.208-1.363 5.099h2zm1.066-4.05c.733-1.184 1.737-2.106 3.031-2.773l-.915-1.778c-1.606.827-2.886 1.995-3.816 3.499l1.7 1.052zm3.042-2.778c1.288-.682 2.777-1.036 4.492-1.036v-2c-1.998 0-3.815.414-5.428 1.268l.936 1.768zm4.492-1.036c1.67 0 3.07.352 4.24 1.02l.992-1.736c-1.52-.868-3.275-1.284-5.232-1.284v2zm4.25 1.026c1.156.642 2 1.557 2.551 2.772l1.821-.828a7.842 7.842 0 0 0-3.4-3.692l-.972 1.748zm2.989 1.477-3.872 2.08.946 1.762 3.872-2.08-.947-1.762zm-2.524 2.477c-.521-.943-1.209-1.69-2.081-2.18l-.98 1.744c.493.277.936.726 1.31 1.404l1.751-.968zm-2.07-2.173a5.256 5.256 0 0 0-2.677-.711v2c.619 0 1.17.148 1.674.44l1.004-1.729zm-2.677-.711c-1.01 0-1.949.229-2.795.704l.981 1.744c.52-.293 1.116-.448 1.814-.448v-2zm-2.795.704a5.283 5.283 0 0 0-2.008 2.005l1.733.998c.32-.554.736-.967 1.256-1.26l-.98-1.743zm-2.02 2.025c-.48.883-.697 1.91-.697 3.039h2c0-.877.167-1.556.454-2.081l-1.756-.958zm-.697 3.039c0 1.129.216 2.156.698 3.039l1.756-.958c-.287-.525-.454-1.204-.454-2.081h-2zm.71 3.059a5.283 5.283 0 0 0 2.007 2.005l.981-1.744a3.283 3.283 0 0 1-1.256-1.259l-1.733.998zm2.007 2.005c.846.475 1.785.704 2.795.704v-2c-.698 0-1.294-.155-1.814-.448l-.98 1.744zm2.795.704c.95 0 1.84-.22 2.657-.667l-.962-1.754a3.452 3.452 0 0 1-1.695.421v2zm2.666-.672c.879-.495 1.567-1.258 2.086-2.222l-1.76-.948c-.378.7-.82 1.153-1.306 1.426l.98 1.744zm.727-1.818 3.872 2.112.958-1.756-3.872-2.112-.958 1.756zm3.443.815c-.552 1.195-1.398 2.117-2.564 2.783l.992 1.736c1.522-.87 2.66-2.103 3.388-3.68l-1.816-.84zm-2.554 2.777c-1.17.65-2.576.994-4.25.994v2c1.952 0 3.704-.403 5.221-1.246l-.97-1.748zm9.413.842-.479.878.006.003.473-.881zm-3.36-3.136-.856.517.005.008.005.008.846-.533zm0-9.152-.85-.526-.002.003.852.523zm3.36-3.136.469.883.005-.002-.474-.881zm9.76 0-.473.881.01.005.463-.886zm3.36 12.288.853.523.004-.006-.857-.517zm-4.416-2.016.878.479.006-.011-.884-.468zm-7.648-5.12-.866-.499-.006.01-.006.01.878.479zm0 5.12-.883.468.008.016.009.015.866-.499zm3.84 5.304c-1.691 0-3.157-.353-4.422-1.033l-.947 1.762c1.593.856 3.391 1.271 5.37 1.271v-2zm-4.417-1.03a7.967 7.967 0 0 1-2.992-2.79L82.925 21.5a9.968 9.968 0 0 0 3.727 3.482l.958-1.756zm-2.983-2.774c-.708-1.175-1.072-2.519-1.072-4.06h-2c0 1.872.447 3.58 1.36 5.093l1.712-1.034zm-1.072-4.06c0-1.565.365-2.905 1.069-4.053l-1.705-1.046c-.918 1.498-1.364 3.208-1.364 5.099h2zm1.066-4.05A7.643 7.643 0 0 1 87.6 9.563l-.937-1.766a9.642 9.642 0 0 0-3.742 3.493l1.7 1.052zm2.984-2.781c1.265-.68 2.73-1.033 4.422-1.033v-2c-1.978 0-3.776.415-5.37 1.271l.948 1.762zm4.422-1.033c1.668 0 3.124.352 4.39 1.033l.948-1.762c-1.592-.855-3.379-1.271-5.338-1.271v2zm4.401 1.038c1.276.667 2.258 1.578 2.97 2.74l1.706-1.045c-.909-1.483-2.167-2.64-3.75-3.467l-.926 1.772zm2.97 2.74c.703 1.147 1.069 2.497 1.069 4.086h2c0-1.91-.444-3.631-1.363-5.13l-1.705 1.045zm1.069 4.086c0 1.541-.363 2.885-1.072 4.06l1.713 1.032c.912-1.513 1.359-3.22 1.359-5.092h-2zm-1.068 4.053c-.714 1.165-1.7 2.09-2.981 2.778l.947 1.762c1.577-.848 2.831-2.014 3.739-3.494l-1.705-1.046zm-2.981 2.778c-1.267.681-2.723 1.033-4.39 1.033v2c1.958 0 3.745-.416 5.337-1.271l-.947-1.762zm-4.39-1.063c.992 0 1.914-.23 2.741-.711l-1.004-1.73c-.495.288-1.066.441-1.738.441v2zm2.741-.711a5.126 5.126 0 0 0 1.944-2.018l-1.756-.958c-.3.552-.697.959-1.192 1.246l1.004 1.73zm1.95-2.03c.474-.894.692-1.914.692-3.027h-2c0 .85-.165 1.537-.46 2.092l1.768.936zm.692-3.027c0-1.129-.216-2.156-.698-3.039l-1.756.958c.287.525.454 1.204.454 2.081h2zm-.698-3.039a5.126 5.126 0 0 0-1.944-2.018l-1.004 1.73c.495.287.891.694 1.192 1.246l1.756-.958zm-1.944-2.018c-.827-.48-1.75-.711-2.742-.711v2c.672 0 1.243.153 1.738.44l1.004-1.729zm-2.742-.711c-.992 0-1.915.231-2.742.711l1.004 1.73c.496-.288 1.067-.441 1.738-.441v-2zm-2.742.711a5.355 5.355 0 0 0-1.964 1.998l1.733.998a3.356 3.356 0 0 1 1.235-1.266l-1.004-1.73zm-1.976 2.018c-.481.883-.698 1.91-.698 3.039h2c0-.877.168-1.556.454-2.081l-1.756-.958zm-.698 3.039c0 1.113.219 2.133.692 3.028l1.768-.936c-.294-.555-.46-1.242-.46-2.092h-2zm.71 3.059a5.355 5.355 0 0 0 1.964 1.998l1.004-1.73c-.5-.29-.912-.704-1.235-1.266l-1.733.998zm1.964 1.998c.827.48 1.75.711 2.742.711v-2c-.671 0-1.242-.153-1.738-.44l-1.004 1.729zM105.156 25h-1v1h1v-1zm0-22.4v-1h-1v1h1zm14.88.992-.415.91.011.005.404-.915zm0 14.272.404.915.011-.005-.415-.91zm-12 .96-.712-.702-1.679 1.702h2.391v-1zm2.304-2.336h1V14.05l-1.712 1.736.712.702zm0 8.512v1h1v-1h-1zm0-7.936-.73.683 1.73 1.85v-2.533h-1zm-2.304-2.464v-1h-2.304l1.574 1.683.73-.683zm0-7.776-.73-.683-1.574 1.683h2.304v-1zm2.304-2.464h1V1.826l-1.73 1.851.73.683zM106.156 25V2.6h-2V25h2zm-1-21.4h9.696v-2h-9.696v2zm9.696 0c1.898 0 3.478.313 4.769.902l.83-1.82c-1.61-.734-3.486-1.082-5.599-1.082v2zm4.78.907c1.29.57 2.252 1.376 2.925 2.413l1.678-1.088c-.905-1.395-2.184-2.444-3.795-3.155l-.808 1.83zm2.925 2.413c.668 1.03 1.023 2.284 1.023 3.808h2c0-1.846-.434-3.493-1.345-4.896l-1.678 1.088zm1.023 3.808c0 1.5-.354 2.745-1.023 3.776l1.678 1.088c.909-1.4 1.345-3.036 1.345-4.864h-2zm-1.023 3.776c-.675 1.04-1.64 1.86-2.936 2.45l.83 1.82c1.606-.732 2.881-1.79 3.784-3.182l-1.678-1.088zm-2.925 2.445c-1.294.571-2.878.875-4.78.875v2c2.109 0 3.981-.336 5.588-1.045l-.808-1.83zm-4.78.875h-6.816v2h6.816v-2zm-6.104 1.702 2.304-2.336-1.424-1.404-2.304 2.336 1.424 1.404zm.592-3.038V25h2v-8.512h-2zm1 7.512h-5.184v2h5.184v-2zm.73-7.619-2.304-2.464-1.46 1.366 2.304 2.464 1.46-1.366zm-3.034-.781h6.528v-2h-6.528v2zm6.528 0c1.717 0 3.192-.363 4.238-1.268l-1.308-1.512c-.533.46-1.447.78-2.93.78v2zm4.238-1.268c1.046-.904 1.53-2.15 1.53-3.604h-2c0 .979-.306 1.631-.838 2.092l1.308 1.512zm1.53-3.604c0-1.468-.48-2.728-1.53-3.636l-1.308 1.512c.528.457.838 1.118.838 2.124h2zm-1.53-3.636c-1.046-.905-2.521-1.268-4.238-1.268v2c1.483 0 2.397.32 2.93.78l1.308-1.512zm-4.238-1.268h-6.528v2h6.528v-2zm-5.798 1.683 2.304-2.464-1.46-1.366-2.304 2.464 1.46 1.366zm.574-3.147v12.704h2V4.36h-2zm21.854 19.744-.479.878.005.003.474-.881zm-3.36-3.136-.857.517.005.008.005.008.847-.533zm0-9.152-.851-.526-.002.003.853.523zm3.36-3.136.468.883.005-.002-.473-.881zm9.76 0-.474.881.011.005.463-.886zm3.36 12.288.852.523.004-.006-.856-.517zm-4.416-2.016.878.479.006-.011-.884-.468zm-7.648-5.12-.867-.499-.006.01-.005.01.878.479zm0 5.12-.884.468.008.016.009.015.867-.499zm3.84 5.304c-1.692 0-3.157-.353-4.423-1.033l-.947 1.762c1.593.856 3.392 1.271 5.37 1.271v-2zm-4.417-1.03a7.974 7.974 0 0 1-2.993-2.79l-1.693 1.064a9.972 9.972 0 0 0 3.728 3.482l.958-1.756zm-2.983-2.774c-.708-1.175-1.072-2.519-1.072-4.06h-2c0 1.872.447 3.58 1.359 5.093l1.713-1.034zm-1.072-4.06c0-1.565.365-2.905 1.068-4.053l-1.705-1.046c-.918 1.498-1.363 3.208-1.363 5.099h2zm1.066-4.05a7.647 7.647 0 0 1 2.978-2.779l-.937-1.766a9.65 9.65 0 0 0-3.742 3.493l1.701 1.052zm2.983-2.781c1.266-.68 2.731-1.033 4.423-1.033v-2c-1.978 0-3.777.415-5.37 1.271l.947 1.762zm4.423-1.033c1.668 0 3.123.352 4.39 1.033l.947-1.762c-1.591-.855-3.378-1.271-5.337-1.271v2zm4.401 1.038c1.275.667 2.258 1.578 2.97 2.74l1.705-1.045c-.909-1.483-2.166-2.64-3.749-3.467l-.926 1.772zm2.97 2.74c.703 1.147 1.069 2.497 1.069 4.086h2c0-1.91-.445-3.631-1.364-5.13l-1.705 1.045zm1.069 4.086c0 1.541-.364 2.885-1.073 4.06l1.713 1.032c.913-1.513 1.36-3.22 1.36-5.092h-2zm-1.069 4.053c-.714 1.165-1.7 2.09-2.981 2.778l.947 1.762c1.578-.848 2.832-2.014 3.739-3.494l-1.705-1.046zm-2.981 2.778c-1.267.681-2.722 1.033-4.39 1.033v2c1.959 0 3.746-.416 5.337-1.271l-.947-1.762zm-4.39-1.063c.992 0 1.915-.23 2.742-.711l-1.004-1.73c-.496.288-1.067.441-1.738.441v2zm2.742-.711a5.129 5.129 0 0 0 1.944-2.018l-1.756-.958a3.13 3.13 0 0 1-1.192 1.246l1.004 1.73zm1.95-2.03c.473-.894.692-1.914.692-3.027h-2c0 .85-.166 1.537-.46 2.092l1.768.936zm.692-3.027c0-1.129-.217-2.156-.698-3.039l-1.756.958c.286.525.454 1.204.454 2.081h2zm-.698-3.039a5.129 5.129 0 0 0-1.944-2.018l-1.004 1.73a3.13 3.13 0 0 1 1.192 1.246l1.756-.958zm-1.944-2.018c-.827-.48-1.75-.711-2.742-.711v2c.671 0 1.242.153 1.738.44l1.004-1.729zm-2.742-.711c-.993 0-1.915.231-2.742.711l1.004 1.73c.495-.288 1.066-.441 1.738-.441v-2zm-2.742.711a5.35 5.35 0 0 0-1.965 1.998l1.733.998a3.356 3.356 0 0 1 1.236-1.266l-1.004-1.73zm-1.976 2.018c-.482.883-.698 1.91-.698 3.039h2c0-.877.167-1.556.454-2.081l-1.756-.958zm-.698 3.039c0 1.113.218 2.133.692 3.028l1.768-.936c-.295-.555-.46-1.242-.46-2.092h-2zm.709 3.059a5.35 5.35 0 0 0 1.965 1.998l1.004-1.73a3.356 3.356 0 0 1-1.236-1.266l-1.733.998zm1.965 1.998c.827.48 1.749.711 2.742.711v-2c-.672 0-1.243-.153-1.738-.44l-1.004 1.729zM148.867 25h-1v1h1v-1zm0-23.744v-1h-1v1h1zm4.992 0h1v-1h-1v1zm0 23.744v1h1v-1h-1zm-3.992 0V1.256h-2V25h2zm-1-22.744h4.992v-2h-4.992v2zm3.992-1V25h2V1.256h-2zm1 22.744h-4.992v2h4.992v-2zm7.929.104-.479.878.005.003.474-.881zm-3.36-3.136-.857.517.005.008.005.008.847-.533zm0-9.152-.851-.526-.002.003.853.523zm3.36-3.136.468.883.005-.002-.473-.881zm9.76 0-.474.881.01.005.464-.886zm3.36 12.288.852.523.004-.006-.856-.517zm-4.416-2.016.877.479.006-.011-.883-.468zm-7.648-5.12-.867-.499-.006.01-.005.01.878.479zm0 5.12-.884.468.008.016.009.015.867-.499zm3.84 5.304c-1.692 0-3.157-.353-4.423-1.033l-.947 1.762c1.593.856 3.392 1.271 5.37 1.271v-2zm-4.418-1.03c-1.262-.688-2.254-1.616-2.992-2.79l-1.693 1.064a9.972 9.972 0 0 0 3.728 3.482l.957-1.756zm-2.982-2.774c-.709-1.175-1.072-2.519-1.072-4.06h-2c0 1.872.446 3.58 1.359 5.093l1.713-1.034zm-1.072-4.06c0-1.565.365-2.905 1.068-4.053l-1.705-1.046c-.918 1.498-1.363 3.208-1.363 5.099h2zm1.066-4.05a7.64 7.64 0 0 1 2.978-2.779l-.937-1.766a9.644 9.644 0 0 0-3.742 3.493l1.701 1.052zm2.983-2.781c1.266-.68 2.731-1.033 4.423-1.033v-2c-1.978 0-3.777.415-5.37 1.271l.947 1.762zm4.423-1.033c1.667 0 3.123.352 4.39 1.033l.947-1.762c-1.591-.855-3.379-1.271-5.337-1.271v2zm4.4 1.038c1.276.667 2.259 1.578 2.971 2.74l1.705-1.045c-.909-1.483-2.166-2.64-3.749-3.467l-.927 1.772zm2.971 2.74c.702 1.147 1.069 2.497 1.069 4.086h2c0-1.91-.445-3.631-1.364-5.13l-1.705 1.045zm1.069 4.086c0 1.541-.364 2.885-1.073 4.06l1.713 1.032c.913-1.513 1.36-3.22 1.36-5.092h-2zm-1.069 4.053c-.714 1.165-1.7 2.09-2.981 2.778l.947 1.762c1.578-.848 2.832-2.014 3.739-3.494l-1.705-1.046zm-2.981 2.778c-1.267.681-2.723 1.033-4.39 1.033v2c1.958 0 3.746-.416 5.337-1.271l-.947-1.762zm-4.39-1.063c.992 0 1.915-.23 2.742-.711l-1.005-1.73c-.495.288-1.066.441-1.737.441v2zm2.742-.711a5.126 5.126 0 0 0 1.943-2.018l-1.755-.958a3.126 3.126 0 0 1-1.193 1.246l1.005 1.73zm1.949-2.03c.474-.894.693-1.914.693-3.027h-2c0 .85-.166 1.537-.46 2.092l1.767.936zm.693-3.027c0-1.129-.217-2.156-.699-3.039l-1.755.958c.286.525.454 1.204.454 2.081h2zm-.699-3.039a5.126 5.126 0 0 0-1.943-2.018l-1.005 1.73c.496.287.892.694 1.193 1.246l1.755-.958zm-1.943-2.018c-.827-.48-1.75-.711-2.742-.711v2c.671 0 1.242.153 1.737.44l1.005-1.729zm-2.742-.711c-.993 0-1.916.231-2.743.711l1.005 1.73c.495-.288 1.066-.441 1.738-.441v-2zm-2.743.711a5.354 5.354 0 0 0-1.964 1.998l1.733.998a3.356 3.356 0 0 1 1.236-1.266l-1.005-1.73zm-1.975 2.018c-.482.883-.698 1.91-.698 3.039h2c0-.877.167-1.556.453-2.081l-1.755-.958zm-.698 3.039c0 1.113.218 2.133.692 3.028l1.767-.936c-.294-.555-.459-1.242-.459-2.092h-2zm.709 3.059a5.354 5.354 0 0 0 1.964 1.998l1.005-1.73a3.356 3.356 0 0 1-1.236-1.266l-1.733.998zm1.964 1.998c.827.48 1.75.711 2.743.711v-2c-.672 0-1.243-.153-1.738-.44l-1.005 1.729z" fill="#000"/></g><path d="M1.656 25V2.6h4.288l9.536 15.808h-2.272L22.584 2.6h4.256l.064 22.4H22.04l-.032-14.944h.896l-7.488 12.576H13.08L5.432 10.056H6.52V25H1.656zm90.371.256c-1.834 0-3.466-.384-4.896-1.152a8.967 8.967 0 0 1-3.36-3.136c-.81-1.344-1.216-2.87-1.216-4.576 0-1.728.406-3.253 1.216-4.576a8.642 8.642 0 0 1 3.36-3.136c1.43-.768 3.062-1.152 4.896-1.152 1.814 0 3.435.384 4.864 1.152 1.43.747 2.55 1.781 3.36 3.104.811 1.323 1.216 2.859 1.216 4.608 0 1.707-.405 3.232-1.216 4.576-.81 1.323-1.93 2.368-3.36 3.136-1.43.768-3.05 1.152-4.864 1.152zm0-4.096c.832 0 1.579-.192 2.24-.576a4.127 4.127 0 0 0 1.568-1.632c.384-.725.576-1.579.576-2.56 0-1.003-.192-1.856-.576-2.56a4.127 4.127 0 0 0-1.568-1.632c-.661-.384-1.408-.576-2.24-.576-.832 0-1.578.192-2.24.576a4.354 4.354 0 0 0-1.6 1.632c-.384.704-.576 1.557-.576 2.56 0 .981.192 1.835.576 2.56a4.354 4.354 0 0 0 1.6 1.632c.662.384 1.408.576 2.24.576zm74.657 4.096c-1.835 0-3.467-.384-4.896-1.152a8.967 8.967 0 0 1-3.36-3.136c-.811-1.344-1.216-2.87-1.216-4.576 0-1.728.405-3.253 1.216-4.576a8.642 8.642 0 0 1 3.36-3.136c1.429-.768 3.061-1.152 4.896-1.152 1.813 0 3.434.384 4.864 1.152 1.429.747 2.549 1.781 3.36 3.104.81 1.323 1.216 2.859 1.216 4.608 0 1.707-.406 3.232-1.216 4.576-.811 1.323-1.931 2.368-3.36 3.136-1.43.768-3.051 1.152-4.864 1.152zm0-4.096c.832 0 1.578-.192 2.24-.576a4.13 4.13 0 0 0 1.568-1.632c.384-.725.576-1.579.576-2.56 0-1.003-.192-1.856-.576-2.56a4.13 4.13 0 0 0-1.568-1.632c-.662-.384-1.408-.576-2.24-.576-.832 0-1.579.192-2.24.576a4.348 4.348 0 0 0-1.6 1.632c-.384.704-.576 1.557-.576 2.56 0 .981.192 1.835.576 2.56a4.348 4.348 0 0 0 1.6 1.632c.661.384 1.408.576 2.24.576z" fill="#007C6E"/><path d="M42.426 25v-3.36l-.32-.736v-6.016c0-1.067-.33-1.899-.992-2.496-.64-.597-1.631-.896-2.975-.896a8.55 8.55 0 0 0-2.72.448c-.875.277-1.622.661-2.24 1.152l-1.793-3.488c.94-.661 2.07-1.173 3.393-1.536a15.18 15.18 0 0 1 4.031-.544c2.624 0 4.662.619 6.112 1.856 1.451 1.237 2.177 3.168 2.177 5.792V25h-4.672zm-5.248.256c-1.343 0-2.495-.224-3.456-.672-.96-.47-1.696-1.099-2.207-1.888-.512-.79-.768-1.675-.768-2.656 0-1.024.245-1.92.736-2.688.511-.768 1.311-1.365 2.4-1.792 1.087-.448 2.506-.672 4.255-.672h4.577V17.8h-4.033c-1.173 0-1.983.192-2.431.576-.427.384-.64.864-.64 1.44 0 .64.245 1.152.736 1.536.511.363 1.205.544 2.08.544.831 0 1.578-.192 2.24-.576.66-.405 1.14-.992 1.44-1.76l.767 2.304c-.362 1.11-1.024 1.952-1.983 2.528-.96.576-2.198.864-3.712.864zm36.29 0c-1.856 0-3.51-.373-4.96-1.12-1.45-.768-2.592-1.824-3.424-3.168-.81-1.344-1.216-2.87-1.216-4.576 0-1.728.405-3.253 1.216-4.576.832-1.344 1.973-2.39 3.424-3.136 1.45-.768 3.104-1.152 4.96-1.152 1.813 0 3.392.384 4.736 1.152a6.843 6.843 0 0 1 2.976 3.232l-3.872 2.08c-.448-.81-1.014-1.408-1.696-1.792a4.257 4.257 0 0 0-2.176-.576c-.854 0-1.622.192-2.304.576a4.282 4.282 0 0 0-1.632 1.632c-.384.704-.576 1.557-.576 2.56 0 1.003.192 1.856.576 2.56.405.704.95 1.248 1.632 1.632.682.384 1.45.576 2.304.576a4.45 4.45 0 0 0 2.176-.544c.682-.384 1.248-.992 1.696-1.824l3.872 2.112c-.64 1.387-1.632 2.464-2.976 3.232-1.344.747-2.923 1.12-4.736 1.12zM105.156 25V2.6h9.696c2.005 0 3.733.33 5.184.992 1.451.64 2.571 1.568 3.36 2.784.789 1.216 1.184 2.667 1.184 4.352 0 1.664-.395 3.104-1.184 4.32-.789 1.216-1.909 2.155-3.36 2.816-1.451.64-3.179.96-5.184.96h-6.816l2.304-2.336V25h-5.184zm5.184-7.936-2.304-2.464h6.528c1.6 0 2.795-.341 3.584-1.024.789-.683 1.184-1.632 1.184-2.848 0-1.237-.395-2.197-1.184-2.88-.789-.683-1.984-1.024-3.584-1.024h-6.528l2.304-2.464v12.704zM148.867 25V1.256h4.992V25h-4.992z" fill="#fff"/><path d="M51.617 25V7.784h4.768v4.864l-.672-1.408c.511-1.216 1.333-2.133 2.463-2.752 1.131-.64 2.507-.96 4.128-.96v4.608a5.853 5.853 0 0 0-.576-.032 4.398 4.398 0 0 0-.544-.032c-1.365 0-2.474.395-3.328 1.184-.831.768-1.248 1.973-1.248 3.616V25h-4.991zm84.473.256c-1.835 0-3.467-.384-4.896-1.152a8.967 8.967 0 0 1-3.36-3.136c-.811-1.344-1.216-2.87-1.216-4.576 0-1.728.405-3.253 1.216-4.576a8.642 8.642 0 0 1 3.36-3.136c1.429-.768 3.061-1.152 4.896-1.152 1.813 0 3.434.384 4.864 1.152 1.429.747 2.549 1.781 3.36 3.104.81 1.323 1.216 2.859 1.216 4.608 0 1.707-.406 3.232-1.216 4.576-.811 1.323-1.931 2.368-3.36 3.136-1.43.768-3.051 1.152-4.864 1.152zm0-4.096c.832 0 1.578-.192 2.24-.576a4.13 4.13 0 0 0 1.568-1.632c.384-.725.576-1.579.576-2.56 0-1.003-.192-1.856-.576-2.56a4.13 4.13 0 0 0-1.568-1.632c-.662-.384-1.408-.576-2.24-.576-.832 0-1.579.192-2.24.576a4.348 4.348 0 0 0-1.6 1.632c-.384.704-.576 1.557-.576 2.56 0 .981.192 1.835.576 2.56a4.348 4.348 0 0 0 1.6 1.632c.661.384 1.408.576 2.24.576z" fill="#EF7568"/></svg>