<svg xmlns="http://www.w3.org/2000/svg" viewBox="0 0 122.88 107.91" style="enable-background:new 0 0 122.88 107.91" xml:space="preserve"><path d="M67.9 7.73c7.53-12.42 33.37-9.87 33.37 7.65v5.46c0 2.45-.09 2.52.8 3.8.67.98.83 1.09 1.06 2.29.3 1.56.32 3.16.34 4.8.04 2.55-.93 3.28-2.23 5.35l-5.51 8.79c-1.71 2.74-1.98 4.42-1.3 7.88 1.52 7.71 22.29 12.05 28.46 14.79v14.6h-14.54v-5.03l-4.01-1.78c-1.86-.83-4.41-1.65-7.35-2.59-6.96-2.24-16.85-5.42-17.23-7.35-.19-.96-.27-1.55-.22-1.84.03-.19.24-.57.62-1.19h-.01l5.49-8.76.62-.92c1.61-2.35 2.69-3.93 2.64-8.09-.01-1-.03-1.99-.07-2.71-.06-1.07-.17-2.15-.38-3.24v-.04c-.44-2.29-.75-2.85-1.75-4.28v-.54h.03v-5.46c0-10.72-6.57-17.56-14.97-20.52v-.01c-1.26-.45-2.55-.8-3.86-1.06zM0 107.91V95.02c6.17-2.74 29-8.8 30.52-16.51.68-3.47.41-5.14-1.3-7.88l-5.51-8.79c-1.29-2.06-2.26-2.8-2.23-5.35.02-1.43.04-2.85.25-4.23.26-1.76.48-1.82 1.4-3.23.62-.95.55-1.24.55-3.43v-5.46c0-11.04 10.26-16.14 19.73-15.29 8.13.72 15.68 5.82 15.68 15.29v5.46c0 2.45-.09 2.52.8 3.8.67.98.83 1.09 1.06 2.29.3 1.56.32 3.16.34 4.8.04 2.55-.93 3.28-2.23 5.35l-5.51 8.79c-1.71 2.74-1.98 4.42-1.3 7.88 1.52 7.71 22.29 12.05 28.46 14.79v14.6L0 107.91zm48.73-88.93c9.35-9.24 31.25-5.8 31.25 10.33v5.46c0 2.46-.09 2.52.8 3.8.67.98.83 1.09 1.06 2.29.3 1.56.32 3.16.34 4.8.04 2.55-.93 3.28-2.23 5.35l-5.51 8.79c-1.71 2.74-1.98 4.42-1.3 7.88 1.52 7.71 22.29 12.05 28.46 14.79v14.6H87.45v-8.13l-4.01-1.78c-1.86-.83-4.41-1.65-7.35-2.59-6.96-2.24-16.85-5.42-17.23-7.35-.19-.97-.27-1.55-.22-1.84.03-.19.24-.57.62-1.19h-.01l5.49-8.76.62-.92c1.61-2.35 2.69-3.93 2.64-8.09-.01-1.01-.03-2-.07-2.71-.06-1.07-.17-2.15-.38-3.24v-.03c-.44-2.29-.75-2.85-1.75-4.28v-.54h.03v-5.46c0-6.4-2.45-11.49-6.28-15.22-2.96-2.91-6.75-4.89-10.82-5.96z" style="fill-rule:evenodd;clip-rule:evenodd"/></svg>