<svg aria-hidden="true" style="position: absolute; width: 0; height: 0; overflow: hidden;" version="1.1" xmlns="http://www.w3.org/2000/svg" xmlns:xlink="http://www.w3.org/1999/xlink">
<defs>
<symbol id="icon-calendar-icon" viewBox="0 0 31 32">
<path d="M28.302 32h-25.375c-1.614-0.006-2.921-1.313-2.927-2.927v-23.201c0.006-1.614 1.313-2.921 2.927-2.927h2.701v3.602c0.005 1.011 0.476 1.912 1.21 2.498l0.006 0.005c0.645 0.526 1.478 0.844 2.384 0.844s1.739-0.318 2.391-0.85l-0.007 0.005c0.74-0.591 1.211-1.491 1.216-2.502v-3.602h5.453v3.602c0.005 1.011 0.476 1.912 1.21 2.498l0.006 0.005c0.645 0.526 1.477 0.844 2.384 0.844s1.739-0.318 2.391-0.85l-0.007 0.005c0.74-0.591 1.211-1.491 1.216-2.502v-3.602h2.82c1.613 0.009 2.918 1.314 2.927 2.926v23.201c-0.004 1.615-1.312 2.923-2.927 2.927h-0zM21.766 14.784h4.193c0.29 0.001 0.526 0.232 0.536 0.52l0 0.001v3.49c-0.010 0.289-0.246 0.52-0.536 0.521h-4.193c-0.284-0.008-0.512-0.237-0.521-0.52l-0-0.001v-3.477c0.007-0.285 0.236-0.514 0.52-0.521h0.001zM13.56 14.784h4.195c0.284 0.008 0.512 0.237 0.521 0.52l0 0.001v3.49c-0.010 0.284-0.237 0.511-0.52 0.521l-0.001 0h-4.195c-0.284-0.008-0.512-0.237-0.521-0.52l-0-0.001v-3.477c0.008-0.284 0.237-0.512 0.52-0.521l0.001-0zM5.268 14.784h4.195c0.284 0.008 0.512 0.237 0.521 0.52l0 0.001v3.49c-0.010 0.284-0.237 0.511-0.52 0.521l-0.001 0h-4.195c-0.29-0.001-0.525-0.232-0.534-0.52l-0-0.001v-3.477c0.007-0.289 0.243-0.521 0.534-0.521 0 0 0 0 0 0v0zM21.766 22.203h4.193c0.29 0.001 0.526 0.232 0.536 0.52l0 0.001v3.49c-0.001 0.295-0.241 0.534-0.536 0.534 0 0 0 0 0 0h-4.193c-0.289-0.009-0.52-0.244-0.521-0.534v-3.477c0.008-0.284 0.237-0.512 0.52-0.521l0.001-0zM13.56 22.203h4.195c0.284 0.008 0.512 0.237 0.521 0.52l0 0.001v3.49c-0.001 0.29-0.232 0.525-0.52 0.534l-0.001 0h-4.195c-0.289-0.009-0.52-0.244-0.521-0.534v-3.477c0.010-0.284 0.237-0.511 0.52-0.521l0.001-0zM5.268 22.203h4.195c0.284 0.008 0.512 0.237 0.521 0.52l0 0.001v3.49c-0.001 0.29-0.232 0.525-0.52 0.534l-0.001 0h-4.195c-0.294-0.001-0.532-0.24-0.534-0.534v-3.477c0.009-0.289 0.244-0.52 0.534-0.521h0zM20.469 1.159c0-0.638 0.625-1.159 1.406-1.159s1.414 0.521 1.414 1.159v5.388c0 0.641-0.63 1.159-1.414 1.159s-1.411-0.521-1.411-1.159v-5.388zM7.813 1.159c0-0.638 0.635-1.159 1.417-1.159s1.411 0.521 1.411 1.159v5.388c0 0.641-0.63 1.159-1.411 1.159s-1.417-0.518-1.417-1.159v-5.388zM0.938 11.422v17.339c0.004 1.27 1.032 2.298 2.302 2.302h24.74c1.271-0.003 2.3-1.032 2.305-2.302v-17.339z"></path>
</symbol>
<symbol id="icon-clock-icon" viewBox="0 0 32 32">
<path d="M16 0c0.001 0 0.003 0 0.005 0 8.839 0 16.005 7.166 16.005 16.005s-7.166 16.005-16.005 16.005c-8.839 0-16.005-7.166-16.005-16.005 0-4.42 1.792-8.421 4.688-11.318v0c2.887-2.896 6.881-4.688 11.292-4.688 0.007 0 0.014 0 0.021 0h-0.001zM16.823 14.37c0.319 0.164 0.577 0.407 0.753 0.705l0.005 0.009h2.578c-0.034-0.080-0.055-0.174-0.055-0.272 0-0.161 0.054-0.309 0.144-0.428l-0.001 0.002c0.129-0.164 0.327-0.268 0.55-0.268 0.16 0 0.308 0.054 0.425 0.145l-0.002-0.001 1.534 1.185c0.159 0.127 0.26 0.321 0.26 0.539 0 0.001 0 0.002 0 0.003v-0 0.016c0 0.001 0 0.003 0 0.004 0 0.218-0.101 0.413-0.259 0.539l-0.001 0.001-1.534 1.182c-0.114 0.087-0.259 0.139-0.416 0.139-0.383 0-0.693-0.31-0.693-0.693 0-0.089 0.017-0.174 0.048-0.253l-0.002 0.005h-2.581c-0.324 0.533-0.903 0.884-1.563 0.884-1.007 0-1.823-0.816-1.823-1.823 0-0.617 0.306-1.162 0.775-1.492l0.006-0.004 0.021-3.526c-0.078 0.033-0.169 0.052-0.264 0.052-0.383 0-0.693-0.31-0.693-0.693 0-0.163 0.056-0.313 0.151-0.431l-0.001 0.001 1.216-1.505c0.124-0.154 0.31-0.254 0.52-0.26l0.001-0h0.016c0.005-0 0.011-0 0.017-0 0.227 0 0.429 0.11 0.555 0.28l0.001 0.002 1.148 1.563c0.085 0.114 0.136 0.257 0.136 0.412 0 0.383-0.31 0.693-0.693 0.693-0.093 0-0.182-0.018-0.263-0.052l0.005 0.002-0.023 3.341zM22.552 25.813c0.036 0.086 0.056 0.186 0.056 0.291 0 0.431-0.35 0.781-0.781 0.781-0.245 0-0.464-0.113-0.607-0.29l-0.001-0.001-0.576-0.995c-0.036-0.086-0.056-0.186-0.056-0.291 0-0.431 0.35-0.781 0.781-0.781 0.245 0 0.464 0.113 0.607 0.29l0.001 0.001 0.576 0.997zM9.445 6.185c-0.029-0.078-0.045-0.168-0.045-0.262 0-0.431 0.35-0.781 0.781-0.781 0.239 0 0.453 0.107 0.596 0.277l0.001 0.001 0.576 0.995c0.114 0.135 0.184 0.311 0.184 0.503 0 0.431-0.35 0.781-0.781 0.781-0.337 0-0.625-0.214-0.734-0.514l-0.002-0.005-0.576-0.995zM26.581 21.221c0.305 0.111 0.519 0.398 0.519 0.736 0 0.431-0.35 0.781-0.781 0.781-0.192 0-0.369-0.070-0.505-0.185l0.001 0.001-0.995-0.576c-0.17-0.144-0.278-0.358-0.278-0.597 0-0.431 0.35-0.781 0.781-0.781 0.094 0 0.184 0.017 0.268 0.047l-0.005-0.002 0.995 0.576zM5.417 10.779c-0.29-0.119-0.49-0.398-0.49-0.725 0-0.431 0.35-0.781 0.781-0.781 0.186 0 0.357 0.065 0.492 0.174l-0.001-0.001 0.997 0.576c0.178 0.144 0.291 0.363 0.291 0.608 0 0.431-0.35 0.781-0.781 0.781-0.105 0-0.205-0.021-0.296-0.058l0.005 0.002-0.997-0.576zM27.776 15.227c0.377 0.060 0.662 0.383 0.662 0.772s-0.285 0.712-0.658 0.772l-0.004 0.001h-1.151c-0.377-0.060-0.662-0.383-0.662-0.772s0.285-0.712 0.658-0.772l0.004-0.001zM4.224 16.773c-0.036 0.006-0.077 0.009-0.119 0.009-0.431 0-0.781-0.35-0.781-0.781s0.35-0.781 0.781-0.781c0.042 0 0.083 0.003 0.123 0.010l-0.004-0.001h1.151c0.377 0.060 0.662 0.383 0.662 0.772s-0.285 0.712-0.658 0.772l-0.004 0.001zM25.815 9.445c0.078-0.029 0.168-0.045 0.262-0.045 0.431 0 0.781 0.35 0.781 0.781 0 0.239-0.107 0.453-0.277 0.596l-0.001 0.001-0.995 0.576c-0.078 0.029-0.168 0.045-0.262 0.045-0.431 0-0.781-0.35-0.781-0.781 0-0.239 0.107-0.453 0.277-0.596l0.001-0.001 0.995-0.576zM6.185 22.555c-0.135 0.114-0.311 0.184-0.503 0.184-0.431 0-0.781-0.35-0.781-0.781 0-0.337 0.214-0.625 0.514-0.734l0.005-0.002 0.995-0.576c0.078-0.029 0.168-0.045 0.262-0.045 0.431 0 0.781 0.35 0.781 0.781 0 0.239-0.107 0.453-0.277 0.596l-0.001 0.001-0.995 0.576zM21.221 5.419c0.144-0.17 0.358-0.278 0.597-0.278 0.431 0 0.781 0.35 0.781 0.781 0 0.094-0.017 0.184-0.047 0.268l0.002-0.005-0.576 0.995c-0.111 0.305-0.398 0.519-0.736 0.519-0.431 0-0.781-0.35-0.781-0.781 0-0.192 0.070-0.369 0.185-0.505l-0.001 0.001 0.576-0.995zM10.779 26.583c-0.144 0.178-0.363 0.291-0.608 0.291-0.431 0-0.781-0.35-0.781-0.781 0-0.105 0.021-0.205 0.058-0.296l-0.002 0.005 0.576-0.997c0.144-0.178 0.363-0.291 0.608-0.291 0.431 0 0.781 0.35 0.781 0.781 0 0.105-0.021 0.205-0.058 0.296l0.002-0.005-0.576 0.995zM15.227 4.224c0.060-0.377 0.383-0.662 0.772-0.662s0.712 0.285 0.772 0.658l0.001 0.004v1.151c-0.060 0.377-0.383 0.662-0.772 0.662s-0.712-0.285-0.772-0.658l-0.001-0.004v-1.151zM16.771 27.776c0.006 0.036 0.009 0.077 0.009 0.119 0 0.431-0.35 0.781-0.781 0.781s-0.781-0.35-0.781-0.781c0-0.042 0.003-0.083 0.010-0.123l-0.001 0.004v-1.151c0.060-0.377 0.383-0.662 0.772-0.662s0.712 0.285 0.772 0.658l0.001 0.004v1.151zM26.042 5.961c-2.568-2.563-6.113-4.149-10.029-4.149-7.84 0-14.195 6.355-14.195 14.195s6.355 14.195 14.195 14.195c7.84 0 14.195-6.355 14.195-14.195 0-0.003 0-0.005 0-0.008v0c0-0.002 0-0.005 0-0.008 0-3.92-1.593-7.467-4.166-10.031l-0-0z"></path>
</symbol>
<symbol id="icon-close-icon" viewBox="0 0 32 32">
<path d="M0.371 2.165c-0.22-0.228-0.355-0.538-0.355-0.88 0-0.7 0.568-1.268 1.268-1.268 0.342 0 0.652 0.135 0.88 0.355l13.835 13.835 13.835-13.835c0.231-0.237 0.553-0.385 0.91-0.385 0.7 0 1.268 0.568 1.268 1.268 0 0.357-0.147 0.679-0.384 0.909l-13.836 13.835 13.836 13.836c0.222 0.228 0.359 0.54 0.359 0.884 0 0.7-0.568 1.268-1.268 1.268-0.344 0-0.656-0.137-0.884-0.359l-13.835-13.835-13.835 13.835c-0.229 0.229-0.546 0.371-0.897 0.371-0.7 0-1.268-0.568-1.268-1.268 0-0.35 0.142-0.667 0.371-0.897l13.835-13.836-13.835-13.835z"></path>
</symbol>
<symbol id="icon-marcopolo-logo" viewBox="0 0 225 32">
<path fill="#000" style="fill: var(--color1, #000)" d="M1.963 29.63h-1.185v1.185h1.185v-1.185zM1.963 3.081v-1.185h-1.185v1.185h1.185zM7.045 3.081l1.015-0.613-0.344-0.572h-0.67v1.185zM18.347 21.817v1.185h2.099l-1.084-1.798-1.015 0.613zM15.654 21.817l-1.019-0.604-1.062 1.79h2.081v-1.185zM26.766 3.081v-1.185h-0.676l-0.344 0.581 1.019 0.604zM31.81 3.081l1.185-0.004-0.004-1.182h-1.182v1.185zM31.886 29.63v1.185h1.189l-0.004-1.189-1.185 0.004zM26.121 29.63l-1.185 0.002 0.002 1.183h1.183v-1.185zM26.084 11.918v-1.185h-1.188l0.002 1.188 1.185-0.002zM27.145 11.918l1.019 0.607 1.067-1.792h-2.086v1.185zM18.271 26.823v1.185h0.673l0.345-0.578-1.018-0.607zM15.502 26.823l-1.012 0.616 0.346 0.569h0.666v-1.185zM6.438 11.918v-1.185h-2.108l1.096 1.801 1.012-0.616zM7.727 11.918h1.185v-1.185h-1.185v1.185zM7.727 29.63v1.185h1.185v-1.185h-1.185zM3.148 29.63v-26.548h-2.37v26.548h2.37zM1.963 4.267h5.082v-2.37h-5.082v2.37zM6.030 3.694l11.302 18.734 2.029-1.223-11.302-18.737-2.029 1.225zM18.347 20.632h-2.693v2.37h2.693v-2.37zM16.673 22.421l11.112-18.735-2.039-1.209-11.112 18.735 2.039 1.209zM26.766 4.267h5.044v-2.37h-5.044v2.37zM30.625 3.085l0.076 26.548 2.37-0.007-0.076-26.548-2.37 0.007zM31.886 28.444h-5.765v2.37h5.765v-2.37zM27.307 29.627l-0.038-17.711-2.37 0.005 0.038 17.711 2.37-0.005zM26.084 13.103h1.062v-2.37h-1.062v2.37zM26.127 11.311l-8.875 14.905 2.036 1.214 8.875-14.905-2.036-1.214zM18.271 25.638h-2.769v2.37h2.769v-2.37zM16.514 26.207l-9.064-14.905-2.024 1.233 9.064 14.905 2.024-1.233zM6.438 13.103h1.289v-2.37h-1.289v2.37zM6.542 11.918v17.711h2.37v-17.711h-2.37zM7.727 28.444h-5.765v2.37h5.765v-2.37zM50.284 29.63h-1.185v1.185h1.185v-1.185zM50.284 25.647h1.185v-0.247l-0.098-0.225-1.088 0.472zM49.905 24.775h-1.185v0.247l0.097 0.225 1.087-0.472zM48.729 14.687l-0.809 0.866 0.007 0.007 0.007 0.006 0.794-0.879zM41.977 14.156l0.359 1.129 0.017-0.005-0.375-1.125zM39.322 15.521l-1.054 0.542 0.66 1.284 1.131-0.896-0.736-0.929zM37.199 11.387l-0.683-0.968-0.843 0.593 0.471 0.917 1.055-0.542zM55.821 29.63v1.185h1.185v-1.185h-1.185zM39.967 29.137l-0.52 1.064 0.009 0.005 0.011 0.005 0.5-1.074zM37.312 20.565l-0.986-0.658-0.006 0.009-0.006 0.011 0.999 0.638zM40.156 18.441l0.434 1.103 0.008-0.004 0.009-0.004-0.45-1.096zM50.625 17.645h1.185v-1.185h-1.185v1.185zM50.625 21.096v1.185h1.185v-1.185h-1.185zM42.963 21.779l-0.77-0.901-0.012 0.011-0.011 0.009 0.794 0.881zM43.077 25.306l-0.73 0.934 0.023 0.017 0.024 0.017 0.685-0.967zM48.197 25.268l0.596 1.025 0.024-0.014-0.62-1.011zM49.903 23.182l1.126-0.375-1.039-3.117-1.191 3.063 1.105 0.429zM50.814 25.913l1.127 0.367 0.122-0.371-0.124-0.371-1.125 0.375zM51.468 29.63v-3.982h-2.37v3.982h2.37zM51.371 25.175l-0.379-0.872-2.175 0.946 0.379 0.872 2.175-0.946zM51.089 24.775v-7.13h-2.37v7.13h2.37zM51.089 17.645c0-1.528-0.485-2.861-1.566-3.838l-1.588 1.759c0.486 0.439 0.783 1.079 0.783 2.079h2.37zM49.536 13.82c-1.069-0.999-2.598-1.381-4.334-1.381v2.37c1.448 0 2.271 0.326 2.718 0.743l1.618-1.733zM45.202 12.44c-1.289 0.002-2.526 0.219-3.679 0.616l0.080-0.024 0.75 2.248c0.85-0.297 1.829-0.469 2.848-0.471h0.001v-2.37zM41.619 13.026c-1.152 0.365-2.17 0.882-3.033 1.567l1.473 1.856c0.604-0.478 1.355-0.871 2.276-1.164l-0.716-2.259zM40.377 14.98l-2.124-4.134-2.108 1.083 2.124 4.134 2.108-1.083zM37.882 12.357c0.98-0.692 2.19-1.247 3.65-1.647l-0.627-2.285c-1.675 0.459-3.145 1.118-4.39 1.995l1.365 1.937zM41.532 10.709c1.337-0.382 2.872-0.602 4.458-0.602 0.002 0 0.005 0 0.007 0h-0v-2.37c-0.001 0-0.002 0-0.003 0-1.811 0-3.563 0.251-5.223 0.72l0.135-0.033 0.627 2.285zM45.997 10.107c2.935 0 5.039 0.691 6.476 1.916l1.537-1.804c-2.003-1.708-4.727-2.483-8.012-2.483v2.37zM52.473 12.024c1.365 1.165 2.163 3.063 2.163 5.963h2.37c0-3.32-0.924-5.999-2.996-7.767l-1.537 1.804zM54.636 17.986v11.643h2.37v-11.643h-2.37zM55.821 28.444h-5.537v2.37h5.537v-2.37zM44.064 28.748c-1.465 0-2.651-0.244-3.596-0.685l-1.001 2.148c1.331 0.621 2.875 0.908 4.597 0.908v-2.37zM40.488 28.072c-0.972-0.475-1.669-1.087-2.144-1.818l-1.989 1.289c0.74 1.139 1.787 2.021 3.091 2.657l1.042-2.129zM38.344 26.254c-0.476-0.735-0.719-1.559-0.719-2.503h-2.37c0 1.382 0.365 2.657 1.102 3.793l1.988-1.289zM37.625 23.751c0-1.016 0.242-1.851 0.687-2.548l-1.998-1.275c-0.718 1.124-1.058 2.412-1.058 3.823h2.37zM38.299 21.223c0.44-0.661 1.166-1.237 2.291-1.678l-0.865-2.207c-1.455 0.571-2.625 1.41-3.399 2.569l1.973 1.316zM40.608 19.538c1.095-0.45 2.607-0.708 4.594-0.708v-2.37c-2.161 0-4.012 0.275-5.496 0.885l0.902 2.193zM45.202 18.83h5.422v-2.37h-5.421v2.37zM49.439 17.645v3.451h2.37v-3.451h-2.37zM50.624 19.911h-4.779v2.37h4.779v-2.37zM45.845 19.911c-1.434 0-2.778 0.217-3.653 0.968l1.542 1.799c0.187-0.16 0.766-0.397 2.111-0.397v-2.37zM42.171 20.898c-0.707 0.623-1.151 1.531-1.151 2.543 0 0.015 0 0.031 0 0.046l-0-0.002h2.37c-0.001-0.013-0.001-0.028-0.001-0.043 0-0.314 0.142-0.595 0.366-0.782l0.002-0.001-1.587-1.761zM41.020 23.486c0 1.112 0.449 2.067 1.327 2.754l1.46-1.868c-0.286-0.223-0.417-0.481-0.417-0.887h-2.37zM42.393 26.273c0.871 0.617 1.961 0.863 3.149 0.863v-2.37c-0.884 0-1.438-0.185-1.78-0.427l-1.369 1.934zM45.542 27.136c1.177 0 2.271-0.273 3.251-0.843l-1.191-2.050c-0.587 0.341-1.263 0.523-2.060 0.523v2.37zM48.817 26.279c1.019-0.625 1.751-1.531 2.193-2.667l-2.209-0.859c-0.267 0.684-0.673 1.169-1.222 1.505l1.239 2.021zM48.78 23.557l0.91 2.731 2.248-0.749-0.91-2.731-2.248 0.749zM49.688 25.544c-0.345 1.056-0.953 1.819-1.835 2.349l1.22 2.033c1.394-0.837 2.354-2.072 2.868-3.644l-2.253-0.737zM47.853 27.893c-0.9 0.539-2.136 0.855-3.789 0.855v2.37c1.937 0 3.633-0.367 5.009-1.192l-1.22-2.033zM61.175 29.63h-1.185v1.185h1.185v-1.185zM61.175 9.225v-1.185h-1.185v1.185h1.185zM66.827 9.225h1.185v-1.185h-1.185v1.185zM66.827 14.99l-1.070 0.51 2.255-0.51h-1.185zM66.030 13.321l-1.093-0.46-0.206 0.491 0.229 0.48 1.069-0.511zM68.949 10.060l0.569 1.039 0.008-0.004 0.007-0.005-0.583-1.031zM73.842 8.922h1.185v-1.185h-1.185v1.185zM73.842 14.383l-0.117 1.179 1.304 0.13v-1.31h-1.185zM73.159 14.345l-0.146 1.176 0.072 0.009h0.075v-1.185zM67.091 29.63v1.185h1.185v-1.185h-1.185zM62.361 29.63v-20.404h-2.37v20.404h2.37zM61.176 10.411h5.651v-2.37h-5.651v2.37zM65.641 9.225v5.765h2.37v-5.765h-2.37zM67.896 14.479l-0.796-1.669-2.139 1.022 0.796 1.669 2.139-1.022zM67.122 13.781c0.506-1.201 1.298-2.080 2.398-2.682l-1.138-2.079c-1.582 0.865-2.737 2.159-3.444 3.841l2.184 0.92zM69.534 11.091c1.124-0.635 2.542-0.984 4.309-0.984v-2.37c-2.076 0-3.919 0.41-5.477 1.292l1.167 2.062zM72.658 8.922v5.461h2.37v-5.461h-2.37zM73.96 13.204c-0.239-0.027-0.517-0.042-0.799-0.044h-0.002v2.37c0.154 0 0.343 0.009 0.565 0.032l0.236-2.359zM73.306 13.169c-0.23-0.029-0.497-0.046-0.768-0.046-0.008 0-0.016 0-0.024 0h0.001v2.37c0.184 0 0.348 0.011 0.498 0.028l0.294-2.351zM72.516 13.122c-1.861 0-3.482 0.545-4.75 1.719l1.609 1.741c0.755-0.699 1.766-1.089 3.141-1.089v-2.37zM67.765 14.841c-1.32 1.221-1.86 3.029-1.86 5.156h2.37c0-1.767 0.448-2.814 1.099-3.415l-1.608-1.742zM65.906 19.996v9.633h2.37v-9.633h-2.37zM67.091 28.444h-5.915v2.37h5.916v-2.37zM81.195 28.606l-0.555 1.048 0.012 0.006 0.543-1.054zM77.137 24.851l-1.016 0.613 0.008 0.012 1.007-0.625zM77.137 14.004l-1.007-0.623-0.004 0.004 1.011 0.62zM81.195 10.287l0.542 1.055 0.012-0.007-0.553-1.048zM92.686 10.287l-0.588 1.029 0.012 0.007 0.576-1.036zM96.213 14.118l0.561 1.043 0.977-0.524-0.459-1.010-1.079 0.491zM91.624 16.583l-1.038 0.574 0.567 1.025 1.032-0.555-0.561-1.044zM89.614 14.459l-0.595 1.025 0.013 0.008 0.581-1.033zM82.37 16.393l-1.028-0.591-0.007 0.012-0.006 0.012 1.041 0.568zM82.37 22.462l-1.041 0.568 0.006 0.012 0.007 0.012 1.028-0.591zM89.614 24.434l0.569 1.039 0.012-0.006-0.581-1.033zM91.624 22.272l0.568-1.041-1.047-0.57-0.565 1.049 1.043 0.562zM96.213 24.775l1.076 0.498 0.465-1.007-0.973-0.531-0.569 1.041zM92.686 28.606l0.575 1.036 0.012-0.007-0.587-1.029zM87.073 28.748c-2.039 0-3.807-0.409-5.337-1.197l-1.084 2.11c1.908 0.981 4.059 1.458 6.421 1.458v-2.37zM81.749 27.558c-1.541-0.815-2.734-1.924-3.605-3.33l-2.015 1.247c1.101 1.779 2.613 3.174 4.511 4.179l1.109-2.095zM78.151 24.239c-0.84-1.393-1.271-2.985-1.271-4.812h-2.37c0 2.219 0.53 4.243 1.612 6.036l2.029-1.225zM76.881 19.428c0-1.855 0.433-3.443 1.266-4.804l-2.021-1.24c-1.088 1.775-1.615 3.802-1.615 6.043h2.37zM78.144 14.628c0.869-1.403 2.059-2.496 3.592-3.287l-1.084-2.107c-1.903 0.98-3.42 2.364-4.523 4.147l2.015 1.247zM81.749 11.335c1.527-0.808 3.291-1.228 5.324-1.228v-2.37c-2.368 0-4.521 0.491-6.433 1.503l1.109 2.095zM87.073 10.107c1.979 0 3.639 0.417 5.025 1.209l1.176-2.057c-1.801-1.029-3.881-1.522-6.201-1.522v2.37zM92.11 11.323c1.37 0.761 2.37 1.845 3.023 3.285l2.158-0.981c-0.849-1.879-2.245-3.386-3.982-4.351l-0.047-0.024-1.152 2.072zM95.653 13.074l-4.589 2.465 1.121 2.088 4.589-2.465-1.122-2.088zM92.661 16.009c-0.617-1.118-1.433-2.003-2.466-2.584l-1.161 2.067c0.584 0.328 1.109 0.86 1.553 1.664l2.075-1.147zM90.208 13.434c-0.897-0.53-1.976-0.843-3.129-0.843-0.015 0-0.031 0-0.046 0h0.002v2.37c0.734 0 1.387 0.175 1.984 0.521l1.19-2.049zM87.035 12.591c-1.197 0-2.31 0.271-3.313 0.834l1.163 2.067c0.616-0.347 1.323-0.531 2.15-0.531v-2.37zM83.723 13.426c-1.001 0.57-1.808 1.377-2.364 2.346l-0.016 0.031 2.054 1.183c0.379-0.657 0.872-1.146 1.489-1.493l-1.161-2.066zM81.329 15.826c-0.569 1.047-0.826 2.264-0.826 3.602h2.37c0-1.039 0.198-1.844 0.538-2.466l-2.081-1.135zM80.503 19.428c0 1.338 0.256 2.555 0.827 3.602l2.081-1.135c-0.34-0.622-0.538-1.427-0.538-2.466h-2.37zM81.344 23.053c0.572 0.999 1.379 1.806 2.348 2.36l0.031 0.016 1.163-2.067c-0.627-0.357-1.133-0.864-1.479-1.473l-0.010-0.019-2.054 1.183zM83.723 25.429c1.003 0.563 2.116 0.834 3.313 0.834v-2.37c-0.827 0-1.534-0.184-2.15-0.531l-1.161 2.067zM87.035 26.264c1.126 0 2.181-0.261 3.149-0.791l-1.14-2.079c-0.566 0.314-1.24 0.499-1.959 0.499-0.018 0-0.035-0-0.053-0l0.003 0v2.37zM90.195 25.467c1.042-0.587 1.857-1.491 2.472-2.633l-2.086-1.124c-0.448 0.83-0.972 1.367-1.548 1.69l1.161 2.067zM91.057 23.313l4.589 2.503 1.135-2.081-4.589-2.503-1.135 2.081zM95.137 24.279c-0.654 1.416-1.657 2.509-3.039 3.298l1.176 2.057c1.804-1.031 3.153-2.492 4.015-4.361l-2.152-0.996zM92.11 27.57c-1.387 0.77-3.053 1.178-5.037 1.178v2.37c2.313 0 4.39-0.478 6.188-1.477l-1.15-2.072zM103.266 28.568l-0.568 1.041 0.007 0.004 0.561-1.044zM99.284 24.851l-1.015 0.613 0.012 0.019 1.003-0.632zM99.284 14.004l-1.007-0.623-0.002 0.004 1.010 0.62zM103.266 10.287l0.556 1.047 0.006-0.002-0.562-1.044zM114.834 10.287l-0.561 1.044 0.012 0.006 0.549-1.050zM118.816 24.851l1.011 0.62 0.005-0.007-1.016-0.613zM113.582 22.462l1.041 0.568 0.007-0.013-1.048-0.555zM104.518 16.393l-1.026-0.591-0.014 0.024 1.041 0.568zM104.518 22.462l-1.047 0.555 0.009 0.019 0.011 0.018 1.026-0.591zM109.069 28.748c-2.004 0-3.742-0.418-5.241-1.224l-1.122 2.088c1.888 1.015 4.019 1.506 6.364 1.506v-2.37zM103.834 27.527c-1.465-0.794-2.662-1.914-3.523-3.268l-0.023-0.038-2.007 1.261c1.102 1.737 2.593 3.134 4.355 4.096l0.062 0.031 1.135-2.081zM100.299 24.239c-0.839-1.393-1.271-2.985-1.271-4.812h-2.37c0 2.219 0.53 4.243 1.612 6.036l2.029-1.225zM99.028 19.428c0-1.855 0.433-3.443 1.267-4.804l-2.021-1.24c-1.088 1.775-1.617 3.802-1.617 6.043h2.37zM100.292 14.628c0.867-1.398 2.062-2.517 3.482-3.27l0.049-0.024-1.111-2.093c-1.843 0.978-3.344 2.384-4.407 4.091l-0.028 0.048 2.015 1.247zM103.828 11.332c1.499-0.806 3.236-1.224 5.241-1.224v-2.37c-2.344 0-4.475 0.492-6.364 1.506l1.124 2.088zM109.069 10.107c1.977 0 3.703 0.417 5.203 1.224l1.124-2.088c-1.887-1.013-4.005-1.506-6.327-1.506v2.37zM114.285 11.337c1.512 0.791 2.676 1.87 3.52 3.247l2.022-1.239c-1.077-1.758-2.568-3.129-4.444-4.109l-1.097 2.1zM117.805 14.585c0.833 1.359 1.267 2.959 1.267 4.843h2.37c0-2.264-0.526-4.303-1.615-6.080l-2.021 1.239zM119.072 19.428c0 1.826-0.43 3.419-1.271 4.812l2.030 1.223c1.081-1.793 1.611-3.816 1.611-6.035h-2.37zM117.806 24.231c-0.846 1.381-2.015 2.477-3.533 3.292l1.122 2.088c1.869-1.005 3.355-2.387 4.431-4.141l-2.021-1.24zM114.273 27.524c-1.502 0.807-3.227 1.224-5.203 1.224v2.37c2.321 0 4.439-0.493 6.325-1.506l-1.122-2.088zM109.070 26.264c1.176 0 2.268-0.273 3.249-0.843l-1.19-2.050c-0.587 0.341-1.263 0.523-2.060 0.523v2.37zM112.319 25.421c0.978-0.576 1.762-1.388 2.288-2.36l0.016-0.032-2.081-1.135c-0.356 0.654-0.826 1.137-1.413 1.477l1.19 2.050zM114.63 23.015c0.562-1.060 0.82-2.268 0.82-3.588h-2.37c0 1.007-0.196 1.822-0.545 2.479l2.095 1.109zM115.45 19.428c0-1.338-0.256-2.555-0.827-3.602l-2.081 1.135c0.34 0.622 0.538 1.427 0.538 2.466h2.37zM114.623 15.826c-0.542-1.004-1.326-1.815-2.276-2.376l-0.028-0.015-1.19 2.050c0.587 0.34 1.056 0.823 1.413 1.477l2.081-1.135zM112.319 13.434c-0.98-0.569-2.074-0.843-3.25-0.843v2.37c0.796 0 1.473 0.181 2.060 0.521l1.19-2.049zM109.069 12.591c-1.176 0-2.27 0.274-3.25 0.843l1.19 2.050c0.588-0.341 1.265-0.523 2.060-0.523v-2.37zM105.819 13.434c-0.976 0.578-1.765 1.379-2.311 2.337l-0.016 0.031 2.054 1.183c0.352-0.627 0.848-1.134 1.445-1.49l0.018-0.010-1.19-2.050zM103.477 15.826c-0.57 1.047-0.827 2.264-0.827 3.602h2.37c0-1.039 0.199-1.844 0.538-2.466l-2.081-1.135zM102.65 19.428c0 1.319 0.26 2.528 0.82 3.589l2.095-1.109c-0.348-0.658-0.545-1.472-0.545-2.479h-2.37zM103.492 23.053c0.563 0.989 1.351 1.79 2.298 2.352l0.029 0.016 1.19-2.050c-0.593-0.344-1.081-0.834-1.464-1.5l-2.054 1.183zM105.819 25.421c0.98 0.569 2.074 0.843 3.25 0.843v-2.37c-0.795 0-1.472-0.181-2.060-0.521l-1.19 2.049zM124.629 29.63h-1.185v1.185h1.185v-1.185zM124.629 3.081v-1.185h-1.185v1.185h1.185zM142.265 4.257l-0.492 1.079 0.013 0.006 0.479-1.084zM142.265 21.172l0.479 1.084 0.013-0.006-0.492-1.079zM128.043 22.31l-0.844-0.832-1.99 2.017h2.834v-1.185zM130.773 19.541h1.185v-2.889l-2.029 2.057 0.844 0.832zM130.773 29.63v1.185h1.185v-1.185h-1.185zM130.773 20.224l-0.865 0.809 2.050 2.193v-3.002h-1.185zM128.043 17.304v-1.185h-2.731l1.865 1.995 0.865-0.809zM128.043 8.088l-0.865-0.809-1.865 1.995h2.731v-1.185zM130.773 5.167h1.185v-3.003l-2.050 2.194 0.865 0.809zM125.815 29.63v-26.548h-2.37v26.548h2.37zM124.629 4.267h11.492v-2.37h-11.492v2.37zM136.121 4.267c2.249 0 4.122 0.371 5.652 1.069l0.984-2.157c-1.908-0.87-4.132-1.282-6.636-1.282v2.37zM141.786 5.342c1.529 0.676 2.669 1.631 3.467 2.86l1.989-1.289c-1.073-1.653-2.588-2.897-4.498-3.739l-0.958 2.169zM145.253 8.201c0.792 1.221 1.212 2.707 1.212 4.513h2.37c0-2.188-0.514-4.14-1.594-5.803l-1.989 1.289zM146.465 12.715c0 1.778-0.42 3.253-1.212 4.475l1.989 1.289c1.077-1.659 1.594-3.598 1.594-5.765h-2.37zM145.253 17.19c-0.8 1.233-1.944 2.204-3.48 2.904l0.984 2.157c1.903-0.868 3.415-2.121 4.485-3.771l-1.989-1.289zM141.786 20.088c-1.534 0.677-3.411 1.037-5.665 1.037v2.37c2.5 0 4.718-0.398 6.623-1.239l-0.958-2.169zM136.121 21.125h-8.078v2.37h8.078v-2.37zM128.887 23.142l2.731-2.769-1.688-1.664-2.731 2.769 1.688 1.664zM129.588 19.541v10.088h2.37v-10.088h-2.37zM130.773 28.444h-6.144v2.37h6.144v-2.37zM131.639 19.415l-2.731-2.92-1.73 1.619 2.731 2.92 1.73-1.619zM128.043 18.489h7.737v-2.37h-7.737v2.37zM135.78 18.489c2.035 0 3.783-0.43 5.023-1.503l-1.55-1.792c-0.632 0.545-1.715 0.924-3.473 0.924v2.37zM140.802 16.986c1.24-1.071 1.813-2.548 1.813-4.271h-2.37c0 1.16-0.363 1.933-0.993 2.479l1.55 1.792zM142.616 12.715c0-1.74-0.569-3.233-1.813-4.309l-1.55 1.792c0.626 0.542 0.993 1.325 0.993 2.517h2.37zM140.802 8.405c-1.24-1.073-2.988-1.503-5.023-1.503v2.37c1.758 0 2.841 0.379 3.473 0.924l1.55-1.792zM135.78 6.903h-7.737v2.37h7.737v-2.37zM128.908 8.897l2.731-2.92-1.73-1.619-2.731 2.92 1.73 1.619zM129.588 5.167v15.057h2.37v-15.057h-2.37zM155.489 28.568l-0.568 1.041 0.006 0.004 0.562-1.044zM151.507 24.851l-1.016 0.613 0.012 0.019 1.004-0.632zM151.507 14.004l-1.009-0.623-0.002 0.004 1.011 0.62zM155.489 10.287l0.555 1.047 0.006-0.002-0.561-1.044zM167.057 10.287l-0.562 1.044 0.013 0.006 0.549-1.050zM171.039 24.851l1.010 0.62 0.005-0.007-1.015-0.613zM165.805 22.462l1.041 0.568 0.007-0.013-1.048-0.555zM156.741 16.393l-1.028-0.591-0.007 0.012-0.006 0.012 1.041 0.568zM156.741 22.462l-1.048 0.555 0.009 0.019 0.011 0.018 1.028-0.591zM161.292 28.748c-2.005 0-3.742-0.418-5.242-1.224l-1.122 2.088c1.888 1.015 4.020 1.506 6.364 1.506v-2.37zM156.057 27.527c-1.465-0.794-2.663-1.914-3.524-3.268l-0.023-0.038-2.007 1.261c1.103 1.737 2.594 3.134 4.357 4.096l0.062 0.031 1.135-2.081zM152.521 24.239c-0.839-1.393-1.271-2.985-1.271-4.812h-2.37c0 2.219 0.53 4.243 1.611 6.036l2.030-1.225zM151.251 19.428c0-1.855 0.433-3.443 1.266-4.804l-2.021-1.24c-1.088 1.775-1.615 3.802-1.615 6.043h2.37zM152.514 14.628c0.867-1.398 2.062-2.517 3.48-3.27l0.049-0.024-1.111-2.093c-1.843 0.979-3.344 2.385-4.407 4.091l-0.028 0.048 2.016 1.247zM156.050 11.332c1.5-0.806 3.237-1.224 5.242-1.224v-2.37c-2.344 0-4.476 0.492-6.364 1.506l1.122 2.088zM161.292 10.107c1.977 0 3.701 0.417 5.203 1.224l1.122-2.088c-1.886-1.013-4.004-1.506-6.325-1.506v2.37zM166.508 11.337c1.511 0.791 2.676 1.87 3.52 3.247l2.021-1.239c-1.077-1.758-2.567-3.129-4.443-4.109l-1.097 2.1zM170.028 14.585c0.833 1.359 1.267 2.959 1.267 4.843h2.37c0-2.264-0.527-4.303-1.617-6.080l-2.021 1.239zM171.295 19.428c0 1.826-0.431 3.419-1.272 4.812l2.030 1.223c1.082-1.793 1.612-3.816 1.612-6.035h-2.37zM170.028 24.231c-0.846 1.381-2.015 2.477-3.533 3.292l1.122 2.088c1.87-1.005 3.356-2.387 4.431-4.141l-2.021-1.24zM166.495 27.524c-1.502 0.807-3.226 1.224-5.203 1.224v2.37c2.322 0 4.44-0.493 6.325-1.506l-1.122-2.088zM161.292 26.264c1.176 0 2.27-0.273 3.25-0.843l-1.19-2.050c-0.588 0.341-1.265 0.523-2.060 0.523v2.37zM164.542 25.421c0.978-0.576 1.761-1.388 2.288-2.36l0.016-0.032-2.081-1.135c-0.331 0.62-0.812 1.121-1.396 1.467l-0.017 0.009 1.19 2.050zM166.853 23.015c0.561-1.060 0.82-2.268 0.82-3.588h-2.37c0 1.007-0.197 1.822-0.545 2.479l2.095 1.109zM167.673 19.428c0-1.338-0.257-2.555-0.827-3.602l-2.081 1.135c0.339 0.622 0.538 1.427 0.538 2.466h2.37zM166.846 15.826c-0.543-1.004-1.326-1.815-2.276-2.376l-0.028-0.015-1.19 2.050c0.601 0.355 1.082 0.857 1.403 1.457l0.010 0.020 2.081-1.135zM164.542 13.434c-0.98-0.569-2.074-0.843-3.25-0.843v2.37c0.795 0 1.472 0.181 2.060 0.521l1.19-2.049zM161.292 12.591c-1.177 0-2.27 0.274-3.25 0.843l1.19 2.050c0.587-0.341 1.263-0.523 2.060-0.523v-2.37zM158.042 13.434c-0.977 0.578-1.766 1.379-2.313 2.337l-0.016 0.031 2.054 1.183c0.352-0.627 0.849-1.135 1.447-1.49l0.018-0.010-1.19-2.050zM155.7 15.826c-0.571 1.047-0.827 2.264-0.827 3.602h2.37c0-1.039 0.198-1.844 0.538-2.466l-2.081-1.135zM154.873 19.428c0 1.319 0.258 2.528 0.82 3.589l2.095-1.109c-0.35-0.658-0.545-1.472-0.545-2.479h-2.37zM155.713 23.053c0.563 0.989 1.352 1.79 2.3 2.352l0.029 0.016 1.19-2.050c-0.616-0.366-1.113-0.874-1.455-1.481l-0.010-0.020-2.054 1.183zM158.042 25.421c0.98 0.569 2.073 0.843 3.25 0.843v-2.37c-0.796 0-1.473-0.181-2.060-0.521l-1.19 2.049zM176.435 29.63h-1.185v1.185h1.185v-1.185zM176.435 1.489v-1.185h-1.185v1.185h1.185zM182.351 1.489h1.185v-1.185h-1.185v1.185zM182.351 29.63v1.185h1.185v-1.185h-1.185zM177.62 29.63v-28.141h-2.37v28.141h2.37zM176.435 2.674h5.916v-2.37h-5.916v2.37zM181.166 1.489v28.141h2.37v-28.141h-2.37zM182.351 28.444h-5.916v2.37h5.916v-2.37zM191.749 28.568l-0.568 1.041 0.006 0.004 0.562-1.044zM187.767 24.851l-1.016 0.613 0.012 0.019 1.004-0.632zM187.767 14.004l-1.009-0.623-0.002 0.004 1.011 0.62zM191.749 10.287l0.555 1.047 0.006-0.002-0.561-1.044zM203.316 10.287l-0.562 1.044 0.012 0.006 0.55-1.050zM207.298 24.851l1.010 0.62 0.005-0.007-1.015-0.613zM202.065 22.462l1.039 0.568 0.007-0.013-1.047-0.555zM193 16.393l-1.028-0.591-0.007 0.012-0.006 0.012 1.041 0.568zM193 22.462l-1.048 0.555 0.009 0.019 0.011 0.018 1.028-0.591zM197.551 28.748c-2.005 0-3.742-0.418-5.242-1.224l-1.122 2.088c1.888 1.015 4.020 1.506 6.364 1.506v-2.37zM192.315 27.527c-1.496-0.815-2.671-1.915-3.546-3.307l-2.007 1.261c1.103 1.737 2.594 3.134 4.357 4.096l0.062 0.031 1.134-2.081zM188.781 24.239c-0.84-1.393-1.271-2.985-1.271-4.812h-2.37c0 2.219 0.529 4.243 1.611 6.036l2.030-1.225zM187.511 19.428c0-1.855 0.433-3.443 1.266-4.804l-2.021-1.24c-1.088 1.775-1.615 3.802-1.615 6.043h2.37zM188.774 14.628c0.867-1.398 2.062-2.517 3.48-3.27l0.049-0.024-1.111-2.093c-1.843 0.978-3.344 2.385-4.407 4.091l-0.028 0.048 2.016 1.247zM192.309 11.332c1.5-0.806 3.237-1.224 5.242-1.224v-2.37c-2.344 0-4.476 0.492-6.364 1.506l1.122 2.088zM197.551 10.107c1.976 0 3.701 0.417 5.203 1.224l1.122-2.088c-1.886-1.013-4.005-1.506-6.325-1.506v2.37zM202.766 11.337c1.512 0.791 2.677 1.87 3.521 3.247l2.021-1.239c-1.077-1.758-2.567-3.129-4.443-4.109l-1.099 2.1zM206.287 14.585c0.832 1.359 1.267 2.959 1.267 4.843h2.37c0-2.264-0.527-4.303-1.617-6.080l-2.021 1.239zM207.554 19.428c0 1.826-0.431 3.419-1.272 4.812l2.030 1.223c1.082-1.793 1.612-3.816 1.612-6.035h-2.37zM206.287 24.231c-0.846 1.381-2.015 2.477-3.533 3.292l1.122 2.088c1.87-1.005 3.356-2.387 4.431-4.141l-2.021-1.24zM202.754 27.524c-1.502 0.807-3.227 1.224-5.203 1.224v2.37c2.321 0 4.44-0.493 6.325-1.506l-1.122-2.088zM197.551 26.264c1.176 0 2.27-0.273 3.25-0.843l-1.191-2.050c-0.587 0.341-1.263 0.523-2.059 0.523v2.37zM200.801 25.421c0.977-0.576 1.761-1.388 2.287-2.36l0.016-0.032-2.080-1.135c-0.331 0.62-0.812 1.122-1.397 1.467l-0.017 0.009 1.191 2.050zM203.111 23.015c0.562-1.060 0.821-2.268 0.821-3.588h-2.37c0 1.007-0.197 1.822-0.545 2.479l2.094 1.109zM203.932 19.428c0-1.338-0.257-2.555-0.828-3.602l-2.080 1.135c0.339 0.622 0.538 1.427 0.538 2.466h2.37zM203.104 15.826c-0.542-1.003-1.325-1.815-2.275-2.376l-0.028-0.015-1.191 2.050c0.588 0.34 1.057 0.823 1.414 1.477l2.080-1.135zM200.801 13.434c-0.98-0.569-2.074-0.843-3.25-0.843v2.37c0.795 0 1.472 0.181 2.059 0.521l1.191-2.049zM197.551 12.591c-1.177 0-2.271 0.274-3.251 0.843l1.191 2.050c0.587-0.341 1.263-0.523 2.060-0.523v-2.37zM194.3 13.434c-0.976 0.578-1.765 1.379-2.311 2.337l-0.016 0.031 2.054 1.183c0.352-0.627 0.849-1.135 1.447-1.49l0.018-0.010-1.191-2.050zM191.96 15.826c-0.571 1.047-0.827 2.264-0.827 3.602h2.37c0-1.039 0.198-1.844 0.537-2.466l-2.080-1.135zM191.132 19.428c0 1.319 0.258 2.528 0.82 3.589l2.094-1.109c-0.348-0.658-0.544-1.472-0.544-2.479h-2.37zM191.973 23.053c0.563 0.989 1.351 1.79 2.298 2.352l0.029 0.016 1.191-2.050c-0.616-0.366-1.113-0.874-1.455-1.481l-0.010-0.020-2.054 1.183zM194.3 25.421c0.98 0.569 2.074 0.843 3.251 0.843v-2.37c-0.796 0-1.473-0.181-2.060-0.521l-1.191 2.049z"></path>
<path fill="#007c6e" style="fill: var(--color2, #007c6e)" d="M1.963 29.63v-26.548h5.082l11.302 18.735h-2.693l11.112-18.735h5.044l0.076 26.548h-5.765l-0.038-17.711h1.062l-8.875 14.905h-2.769l-9.064-14.905h1.289v17.711h-5.765zM109.069 29.933c-2.174 0-4.108-0.455-5.803-1.365-1.645-0.893-2.989-2.152-3.957-3.674l-0.026-0.043c-0.96-1.593-1.441-3.401-1.441-5.423 0-2.048 0.481-3.855 1.441-5.423 0.979-1.577 2.327-2.839 3.927-3.69l0.055-0.027c1.695-0.91 3.629-1.365 5.803-1.365 2.15 0 4.071 0.455 5.765 1.365 1.695 0.885 3.022 2.111 3.982 3.679 0.961 1.568 1.441 3.388 1.441 5.461 0 2.023-0.48 3.831-1.441 5.423-0.96 1.568-2.287 2.807-3.982 3.717s-3.615 1.365-5.765 1.365zM109.069 25.079c0.986 0 1.871-0.228 2.655-0.683 0.79-0.466 1.422-1.122 1.846-1.908l0.013-0.026c0.455-0.859 0.683-1.871 0.683-3.034 0-1.189-0.228-2.2-0.683-3.034-0.436-0.812-1.069-1.468-1.836-1.922l-0.023-0.012c-0.783-0.455-1.669-0.683-2.655-0.683s-1.87 0.228-2.655 0.683c-0.796 0.472-1.439 1.127-1.883 1.909l-0.013 0.026c-0.455 0.834-0.683 1.845-0.683 3.034 0 1.163 0.228 2.175 0.683 3.034 0.457 0.808 1.1 1.462 1.873 1.921l0.024 0.013c0.785 0.455 1.669 0.683 2.655 0.683zM197.551 29.933c-2.175 0-4.109-0.455-5.803-1.365-1.645-0.893-2.989-2.152-3.957-3.674l-0.026-0.043c-0.961-1.593-1.441-3.401-1.441-5.423 0-2.048 0.48-3.855 1.441-5.423 0.979-1.577 2.327-2.839 3.927-3.69l0.055-0.027c1.694-0.91 3.628-1.365 5.803-1.365 2.149 0 4.070 0.455 5.765 1.365 1.694 0.885 3.021 2.111 3.982 3.679 0.96 1.568 1.441 3.388 1.441 5.461 0 2.023-0.481 3.831-1.441 5.423-0.961 1.568-2.289 2.807-3.982 3.717-1.695 0.91-3.616 1.365-5.765 1.365zM197.551 25.079c0.986 0 1.87-0.228 2.655-0.683 0.789-0.466 1.422-1.123 1.846-1.908l0.013-0.026c0.455-0.859 0.683-1.871 0.683-3.034 0-1.189-0.228-2.2-0.683-3.034-0.437-0.812-1.069-1.468-1.836-1.922l-0.023-0.012c-0.785-0.455-1.669-0.683-2.655-0.683s-1.871 0.228-2.655 0.683c-0.797 0.472-1.439 1.126-1.883 1.909l-0.013 0.026c-0.455 0.834-0.683 1.845-0.683 3.034 0 1.163 0.228 2.175 0.683 3.034 0.457 0.808 1.1 1.463 1.873 1.921l0.024 0.013c0.783 0.455 1.669 0.683 2.655 0.683z"></path>
<path fill="#fff" style="fill: var(--color3, #fff)" d="M50.283 29.63v-3.982l-0.379-0.872v-7.13c0-1.265-0.391-2.251-1.176-2.958-0.759-0.708-1.933-1.062-3.526-1.062-1.154 0.002-2.262 0.196-3.295 0.552l0.071-0.021c-1.037 0.328-1.922 0.783-2.655 1.365l-2.125-4.134c1.114-0.783 2.453-1.39 4.021-1.82 1.431-0.409 3.075-0.645 4.773-0.645 0.002 0 0.003 0 0.005 0h-0c3.11 0 5.525 0.734 7.244 2.2 1.72 1.466 2.58 3.755 2.58 6.865v11.643h-5.537zM44.063 29.933c-1.592 0-2.957-0.265-4.096-0.796-1.138-0.557-2.010-1.303-2.616-2.238-0.607-0.936-0.91-1.985-0.91-3.148 0-1.214 0.29-2.276 0.872-3.186 0.606-0.91 1.554-1.618 2.844-2.124 1.288-0.531 2.97-0.796 5.043-0.796h5.425v3.451h-4.78c-1.39 0-2.35 0.228-2.881 0.683-0.506 0.455-0.759 1.024-0.759 1.707 0 0.759 0.29 1.365 0.872 1.82 0.606 0.43 1.428 0.645 2.465 0.645 0.985 0 1.87-0.228 2.655-0.683 0.782-0.48 1.351-1.176 1.707-2.086l0.909 2.731c-0.429 1.316-1.214 2.313-2.35 2.996-1.138 0.683-2.605 1.024-4.399 1.024zM87.073 29.933c-2.2 0-4.16-0.442-5.879-1.327-1.719-0.91-3.072-2.162-4.058-3.755-0.96-1.593-1.441-3.401-1.441-5.423 0-2.048 0.48-3.855 1.441-5.423 0.986-1.593 2.338-2.833 4.058-3.717 1.719-0.91 3.679-1.365 5.879-1.365 2.149 0 4.020 0.455 5.613 1.365 1.563 0.865 2.785 2.185 3.506 3.779l0.021 0.051-4.589 2.465c-0.531-0.96-1.202-1.669-2.010-2.124-0.727-0.429-1.601-0.683-2.535-0.683-0.016 0-0.031 0-0.047 0l0.002-0c-1.012 0-1.922 0.228-2.731 0.683-0.814 0.464-1.47 1.12-1.921 1.909l-0.013 0.025c-0.455 0.834-0.683 1.845-0.683 3.034s0.228 2.2 0.683 3.034c0.48 0.834 1.126 1.479 1.934 1.934s1.719 0.683 2.731 0.683c0.015 0 0.033 0 0.052 0 0.927 0 1.798-0.239 2.554-0.659l-0.027 0.014c0.808-0.455 1.479-1.176 2.010-2.162l4.589 2.503c-0.759 1.644-1.934 2.92-3.527 3.831-1.593 0.885-3.464 1.327-5.613 1.327zM124.629 29.63v-26.548h11.492c2.376 0 4.424 0.391 6.144 1.176 1.72 0.759 3.047 1.858 3.982 3.3s1.403 3.161 1.403 5.158c0 1.972-0.468 3.679-1.403 5.12s-2.263 2.554-3.982 3.337c-1.72 0.759-3.768 1.138-6.144 1.138h-8.078l2.731-2.769v10.088h-6.144zM130.773 20.224l-2.731-2.92h7.737c1.896 0 3.313-0.404 4.248-1.214s1.403-1.934 1.403-3.375c0-1.466-0.468-2.604-1.403-3.413s-2.351-1.214-4.248-1.214h-7.737l2.731-2.92v15.057zM176.435 29.63v-28.141h5.916v28.141h-5.916z"></path>
<path fill="#ef7568" style="fill: var(--color4, #ef7568)" d="M61.176 29.63v-20.404h5.651v5.765l-0.796-1.669c0.606-1.441 1.58-2.528 2.919-3.262 1.34-0.759 2.971-1.138 4.892-1.138v5.461c-0.203-0.023-0.44-0.036-0.68-0.038h-0.002c-0.189-0.024-0.407-0.038-0.628-0.038-0.006 0-0.012 0-0.018 0h0.001c-1.618 0-2.932 0.468-3.944 1.403-0.985 0.91-1.479 2.338-1.479 4.286v9.633h-5.915zM161.292 29.933c-2.175 0-4.109-0.455-5.803-1.365-1.645-0.893-2.989-2.152-3.957-3.674l-0.026-0.043c-0.961-1.593-1.441-3.401-1.441-5.423 0-2.048 0.48-3.855 1.441-5.423 0.979-1.577 2.327-2.839 3.927-3.69l0.055-0.027c1.694-0.91 3.628-1.365 5.803-1.365 2.149 0 4.070 0.455 5.765 1.365 1.694 0.885 3.021 2.111 3.982 3.679 0.96 1.568 1.441 3.388 1.441 5.461 0 2.023-0.481 3.831-1.441 5.423-0.961 1.568-2.289 2.807-3.982 3.717-1.695 0.91-3.616 1.365-5.765 1.365zM161.292 25.079c0.986 0 1.87-0.228 2.655-0.683 0.789-0.466 1.422-1.123 1.846-1.908l0.013-0.026c0.455-0.859 0.683-1.871 0.683-3.034 0-1.189-0.228-2.2-0.683-3.034-0.437-0.812-1.069-1.468-1.836-1.922l-0.023-0.012c-0.785-0.455-1.669-0.683-2.655-0.683s-1.871 0.228-2.655 0.683c-0.797 0.472-1.439 1.126-1.883 1.909l-0.013 0.026c-0.455 0.834-0.683 1.845-0.683 3.034 0 1.163 0.228 2.175 0.683 3.034 0.457 0.808 1.1 1.463 1.873 1.921l0.024 0.013c0.783 0.455 1.669 0.683 2.655 0.683z"></path>
</symbol>
<symbol id="icon-online-training-icon" viewBox="0 0 32 32">
<path d="M0.728 17.34h2.23c-0.269-0.073-0.464-0.314-0.467-0.601v-16.119c0.002-0.342 0.278-0.619 0.62-0.62h26.037c0.342 0.002 0.619 0.278 0.62 0.62v16.116c-0 0.287-0.195 0.529-0.46 0.601l-0.004 0.001h2.39c0 0 0 0 0 0 0.401 0 0.727 0.325 0.728 0.725v0c-0.002 0.402-0.327 0.727-0.728 0.728h-6.145c-0.022-0.835-0.286-1.603-0.724-2.244l0.009 0.014h3.958v-15.588h-25.24v15.588h2.187c-0.082 0.117-0.163 0.252-0.234 0.393l-0.009 0.019c-0.085 0.169-0.16 0.368-0.214 0.575l-0.005 0.022-0.024 0.106c-0.036 0.153-0.063 0.334-0.073 0.519l-0 0.009c-0.003 0.056-0.005 0.122-0.005 0.189 0 0.143 0.009 0.283 0.025 0.421l-0.002-0.017h-4.47c-0.403-0.002-0.728-0.328-0.728-0.731 0-0.001 0-0.002 0-0.003v0c0.002-0.4 0.326-0.723 0.726-0.723 0.001 0 0.002 0 0.003 0h-0zM15.707 16.562h0.792c-0.219 0.313-0.398 0.674-0.52 1.062l-0.008 0.028-0.032-0.264c-0.033-0.231-0.083-0.436-0.15-0.634l0.007 0.025q-0.040-0.119-0.087-0.23z"></path>
<path d="M13.441 10.478c0.034-0.296-0.842-1.422-1-1.963-0.343-0.544-0.464-1.412-0.092-1.987 0.15-0.227 0.084-0.633 0.084-0.95 0-3.135 5.491-3.135 5.491 0 0 0.396-0.090 0.697 0.124 1.011 0.359 0.528 0.174 1.443-0.129 1.929-0.195 0.567-1.113 1.639-1.055 1.96 0.058 1.61-3.43 1.557-3.43 0zM15.441 13.259h0.193c0.175 0 0.317-0.142 0.317-0.317v0-0.512c0-0.175-0.142-0.317-0.317-0.317v0h-1.142c-0.175 0-0.317 0.142-0.317 0.317v0 0.512c0 0.175 0.142 0.317 0.317 0.317v0h0.195l-0.375 1.211h1.491l-0.361-1.211zM8.533 14.47c0.203-2.612 1.438-1.319 3.958-2.902l1.38 2.902zM21.697 14.47c-0.201-2.612-1.438-1.319-3.958-2.902l-1.38 2.902zM13.325 27.509c1.169-2.311 4.855-0.351 5.158-2.942 0.040-0.338-0.752-1.243-0.934-1.847-0.388-0.62-0.528-1.604-0.103-2.259 0.169-0.264 0.098-1.1 0.098-1.456 0-3.562 6.243-3.565 6.243 0 0 0.451-0.103 1.169 0.14 1.522 0.412 0.594 0.201 1.644-0.145 2.193-0.222 0.644-1.055 1.493-0.992 1.847 0.528 2.657 4.008 0.34 4.805 2.942z"></path>
<path d="M12.697 28.53h15.356c1.33 0.004 2.407 1.082 2.412 2.411v1.056h-20.174v-1.055c0.006-1.33 1.084-2.407 2.414-2.412h0z"></path>
<path d="M11.119 16.082l1.335-0.178c0.090-0.013 0.183-0.020 0.277-0.020 0.713 0 1.335 0.385 1.676 0.968l-0.005-0.010c0.123 0.217 0.207 0.459 0.243 0.728l0.388 2.902c0.032 0.261 0.24 0.958 0.177 1.201l-0.003 0.014c-0.141 0.492-0.465 0.906-0.902 1.171l0.009-0.005c-0.216 0.125-0.459 0.21-0.727 0.245l-0.921 0.121 0.079 0.177c0.084 0.153 0.174 0.306 0.264 0.451l0.005 0.009c0.086 0.14 0.188 0.269 0.304 0.384l-0-0c0.136 0.134 0.284 0.256 0.454 0.37l0.001 0.001c0.075 0.047 0.125 0.13 0.125 0.224 0 0.059-0.020 0.114-0.052 0.158l-0.001 0.001c-0.047 0.071-0.128 0.119-0.22 0.119-0.015 0-0.030-0.001-0.043-0.003l-0.032-0.003c-0.346-0.043-0.684-0.113-0.966-0.197l-0.041-0.010c-0.314-0.092-0.617-0.209-0.872-0.335l-0.032-0.014c-0.282-0.137-0.55-0.297-0.786-0.469l-0.015-0.011c-0.215-0.158-0.418-0.331-0.607-0.517l-0.953 0.128c-0.092 0.014-0.186 0.021-0.282 0.021-0.442 0-0.849-0.152-1.167-0.405l-0.005-0.004c-0.2-0.15-0.37-0.338-0.502-0.564l0.005 0.009c-0.125-0.216-0.208-0.459-0.242-0.727l-0.609-3.348 0.001 0.010c-0.012-0.089-0.018-0.18-0.018-0.272 0-0.176 0.023-0.347 0.062-0.495l0.003-0.014c0.070-0.246 0.187-0.472 0.337-0.664l0.004-0.005c0.15-0.2 0.338-0.37 0.564-0.502l-0.010 0.005c0.217-0.124 0.459-0.209 0.727-0.245l2.974-0.385zM12.623 18.29c0.12-0.026 0.209-0.132 0.209-0.258 0-0.008-0-0.015-0.001-0.023l0 0.001c-0.014-0.122-0.117-0.215-0.241-0.215-0.008 0-0.016 0-0.024 0.001l0.001-0-3.958 0.578c-0.119 0.027-0.207 0.132-0.207 0.258 0 0.008 0 0.015 0.001 0.023l-0-0.001c0.014 0.122 0.117 0.215 0.241 0.215 0.008 0 0.016-0 0.024-0.001l-0.001 0 3.958-0.578zM13.29 21.372c0.12-0.026 0.209-0.132 0.209-0.258 0-0.008-0-0.015-0.001-0.023l0 0.001c-0.014-0.122-0.117-0.215-0.241-0.215-0.008 0-0.016 0-0.024 0.001l0.001-0-3.958 0.578c-0.119 0.027-0.207 0.132-0.207 0.258 0 0.008 0 0.015 0.001 0.023l-0-0.001c0.014 0.122 0.117 0.215 0.241 0.215 0.008 0 0.016-0 0.024-0.001l-0.001 0 3.958-0.578zM11.778 20.026c0.119-0.018 0.209-0.12 0.209-0.243 0-0.013-0.001-0.026-0.003-0.038l0 0.001c-0.014-0.122-0.117-0.215-0.241-0.215-0.008 0-0.016 0-0.024 0.001l0.001-0-2.749 0.43c-0.119 0.018-0.209 0.12-0.209 0.243 0 0.013 0.001 0.026 0.003 0.038l-0-0.001c0.013 0.121 0.115 0.215 0.239 0.215 0.009 0 0.018-0 0.026-0.001l-0.001 0 2.755-0.433z"></path>
<path d="M22.691 2.177l-1.309-0.173c-0.089-0.013-0.181-0.020-0.274-0.020-0.428 0-0.822 0.147-1.129 0.391l-0.005 0.003c-0.192 0.145-0.355 0.328-0.481 0.546l0.005-0.010c-0.12 0.211-0.202 0.448-0.237 0.709l-0.39 2.818c-0.032 0.253-0.232 0.929-0.172 1.164l0.003 0.013c0.067 0.24 0.18 0.46 0.327 0.647l0.003 0.005c0.144 0.194 0.327 0.359 0.545 0.486l-0.009-0.005c0.211 0.122 0.447 0.205 0.708 0.24l0.889 0.116-0.077 0.164c-0.074 0.148-0.158 0.296-0.245 0.438l-0.006 0.011c-0.077 0.134-0.168 0.26-0.269 0.372l0.001-0.001c-0.133 0.129-0.277 0.246-0.441 0.357l-0.001 0.001c-0.075 0.046-0.126 0.13-0.126 0.225 0 0.146 0.118 0.264 0.264 0.264 0.016 0 0.032-0.001 0.045-0.004l0.032-0.003c0.336-0.043 0.664-0.111 0.936-0.192l0.039-0.010c0.304-0.089 0.598-0.204 0.845-0.328l0.029-0.013c0.274-0.131 0.533-0.287 0.762-0.454l0.014-0.010c0.204-0.154 0.397-0.322 0.577-0.502l0.924 0.123c0.087 0.013 0.177 0.019 0.268 0.019 0.17 0 0.335-0.023 0.478-0.063l0.014-0.003c0.239-0.070 0.459-0.186 0.646-0.334l0.005-0.003c0.194-0.145 0.358-0.327 0.486-0.545l-0.005 0.010c0.12-0.21 0.202-0.446 0.237-0.706l0.588-3.237-0.001 0.010c0.012-0.088 0.018-0.177 0.018-0.268 0-0.17-0.022-0.335-0.059-0.478l-0.003-0.013c-0.068-0.238-0.181-0.458-0.327-0.644l-0.003-0.005c-0.146-0.194-0.329-0.358-0.548-0.486l0.009 0.005c-0.21-0.12-0.446-0.202-0.706-0.237l-2.876-0.38zM20.58 7.303c-0.114-0.020-0.199-0.118-0.199-0.237 0-0.010 0.001-0.019 0.002-0.028l-0 0.001c0.013-0.119 0.112-0.21 0.234-0.21 0.011 0 0.021 0.001 0.032 0.002l-0.001-0 3.826 0.557c0.115 0.020 0.202 0.12 0.202 0.239 0 0.009-0 0.017-0.001 0.026l0-0.001c-0.014 0.119-0.114 0.21-0.236 0.21-0.010 0-0.020-0.001-0.029-0.002l0.001 0-3.828-0.557zM21.23 4.311c-0.115-0.020-0.202-0.12-0.202-0.239 0-0.009 0-0.017 0.001-0.026l-0 0.001c0.013-0.119 0.112-0.21 0.234-0.21 0.011 0 0.021 0.001 0.032 0.002l-0.001-0 3.826 0.554c0.115 0.020 0.202 0.12 0.202 0.239 0 0.009-0 0.017-0.001 0.026l0-0.001c-0.014 0.119-0.114 0.21-0.236 0.21-0.010 0-0.020-0.001-0.029-0.002l0.001 0-3.831-0.554zM20.995 5.831c-0.119-0.016-0.209-0.117-0.209-0.239 0-0.133 0.108-0.241 0.241-0.241 0.011 0 0.022 0.001 0.033 0.002l-0.001-0 1.942 0.293c0.115 0.019 0.202 0.118 0.202 0.237 0 0.009-0.001 0.019-0.002 0.028l0-0.001c-0.013 0.119-0.112 0.21-0.234 0.21-0.011 0-0.021-0.001-0.032-0.002l0.001 0-1.947-0.288z"></path>
</symbol>
<symbol id="icon-queue-icon" viewBox="0 0 36 32">
<path d="M20.135 2.292c2.233-3.683 9.896-2.927 9.896 2.269v1.619c0 0.727-0.027 0.747 0.237 1.127 0.199 0.291 0.246 0.323 0.314 0.679 0.089 0.463 0.095 0.937 0.101 1.423 0.012 0.756-0.276 0.973-0.661 1.586l-1.634 2.607c-0.507 0.813-0.587 1.311-0.386 2.337 0.451 2.286 6.61 3.573 8.44 4.386v4.33h-4.312v-1.492l-1.189-0.528c-0.552-0.246-1.308-0.489-2.18-0.768-2.064-0.664-4.997-1.607-5.109-2.18-0.056-0.285-0.080-0.46-0.065-0.546 0.009-0.056 0.071-0.169 0.184-0.353h-0.003l1.628-2.598 0.184-0.273c0.477-0.697 0.798-1.165 0.783-2.399-0.003-0.297-0.009-0.59-0.021-0.804-0.018-0.317-0.050-0.638-0.113-0.961v-0.012c-0.13-0.679-0.222-0.845-0.519-1.269v-0.16h0.009v-1.619c0-3.179-1.948-5.207-4.439-6.085v-0.003c-0.374-0.133-0.756-0.237-1.145-0.314zM0 32v-3.822c1.83-0.813 8.6-2.61 9.050-4.896 0.202-1.029 0.122-1.524-0.386-2.337l-1.634-2.607c-0.383-0.611-0.67-0.83-0.661-1.587 0.006-0.424 0.012-0.845 0.074-1.254 0.077-0.522 0.142-0.54 0.415-0.958 0.184-0.282 0.163-0.368 0.163-1.017v-1.619c0-3.274 3.043-4.786 5.851-4.534 2.411 0.213 4.65 1.726 4.65 4.534v1.619c0 0.727-0.027 0.747 0.237 1.127 0.199 0.291 0.246 0.323 0.314 0.679 0.089 0.463 0.095 0.937 0.101 1.423 0.012 0.756-0.276 0.973-0.661 1.587l-1.634 2.607c-0.507 0.813-0.587 1.311-0.386 2.337 0.451 2.286 6.61 3.573 8.44 4.386v4.33l-23.934 0.003zM14.451 5.628c2.773-2.74 9.267-1.72 9.267 3.063v1.619c0 0.729-0.027 0.747 0.237 1.127 0.199 0.291 0.246 0.323 0.314 0.679 0.089 0.463 0.095 0.937 0.101 1.423 0.012 0.756-0.276 0.973-0.661 1.586l-1.634 2.607c-0.507 0.813-0.587 1.311-0.386 2.337 0.451 2.286 6.61 3.573 8.44 4.386v4.33h-4.196v-2.411l-1.189-0.528c-0.552-0.246-1.308-0.489-2.18-0.768-2.064-0.664-4.997-1.607-5.109-2.18-0.056-0.288-0.080-0.46-0.065-0.546 0.009-0.056 0.071-0.169 0.184-0.353h-0.003l1.628-2.598 0.184-0.273c0.477-0.697 0.798-1.165 0.783-2.399-0.003-0.299-0.009-0.593-0.021-0.804-0.018-0.317-0.050-0.638-0.113-0.961v-0.009c-0.13-0.679-0.222-0.845-0.519-1.269v-0.16h0.009v-1.619c0-1.898-0.727-3.407-1.862-4.513-0.878-0.863-2.002-1.45-3.209-1.767z"></path>
</symbol>
<symbol id="icon-send-icon" viewBox="0 0 32 32">
<path d="M32 0l-10.815 32-4.951-16.234-16.234-4.951 32-10.815z"></path>
</symbol>
<symbol id="icon-mob-menu" viewBox="0 0 41 32">
<path stroke-linejoin="miter" stroke-linecap="butt" stroke-miterlimit="4" stroke-width="1.28" d="M2.56 14.72h35.84c1.060 0 1.92 0.86 1.92 1.92s-0.86 1.92-1.92 1.92h-35.84c-1.060 0-1.92-0.86-1.92-1.92s0.86-1.92 1.92-1.92z"></path>
<path stroke-linejoin="miter" stroke-linecap="butt" stroke-miterlimit="4" stroke-width="1.28" d="M2.56 0.64h35.84c1.060 0 1.92 0.86 1.92 1.92s-0.86 1.92-1.92 1.92h-35.84c-1.060 0-1.92-0.86-1.92-1.92s0.86-1.92 1.92-1.92z"></path>
<path stroke-linejoin="miter" stroke-linecap="butt" stroke-miterlimit="4" stroke-width="1.28" d="M2.56 27.52h35.84c1.060 0 1.92 0.86 1.92 1.92s-0.86 1.92-1.92 1.92h-35.84c-1.060 0-1.92-0.86-1.92-1.92s0.86-1.92 1.92-1.92z"></path>
</symbol>
<symbol id="icon-fb" viewBox="0 0 32 32">
<path fill="#fffcff" style="fill: var(--color1, #fffcff)" d="M32 16c0 8.837-7.163 16-16 16s-16-7.163-16-16c0-8.837 7.163-16 16-16s16 7.163 16 16z"></path>
<path fill="#ef7568" style="fill: var(--color2, #ef7568)" d="M19.836 13.3h-2.702v-1.533c0-0.791 0.064-1.29 1.198-1.29h1.432v-2.438c-0.697-0.072-1.398-0.107-2.099-0.106-2.080 0-3.598 1.27-3.598 3.603v1.764h-2.3v3.067l2.3-0.001v6.901h3.067v-6.902l2.351-0.001 0.352-3.064z"></path>
</symbol>
<symbol id="icon-insta" viewBox="0 0 32 32">
<path fill="#fffcff" style="fill: var(--color1, #fffcff)" d="M32 16c0 8.837-7.163 16-16 16s-16-7.163-16-16c0-8.837 7.163-16 16-16s16 7.163 16 16z"></path>
<path fill="#ef7568" style="fill: var(--color2, #ef7568)" d="M12.533 15.606c-0.003-1.693 1.368-3.069 3.061-3.072s3.069 1.367 3.073 3.060c0.003 1.694-1.367 3.069-3.061 3.072s-3.069-1.367-3.072-3.061zM10.876 15.609c0.005 2.609 2.124 4.72 4.733 4.714s4.72-2.124 4.715-4.733c-0.005-2.608-2.124-4.72-4.734-4.715s-4.72 2.124-4.714 4.733zM19.397 10.682c0.001 0.609 0.497 1.103 1.106 1.102s1.103-0.496 1.102-1.106c-0.001-0.609-0.497-1.103-1.106-1.102s-1.103 0.497-1.102 1.106zM11.897 23.095c-0.897-0.039-1.384-0.188-1.709-0.313-0.43-0.166-0.737-0.366-1.059-0.686-0.322-0.322-0.522-0.628-0.69-1.056-0.126-0.325-0.278-0.811-0.32-1.708-0.046-0.97-0.056-1.261-0.060-3.717s0.004-2.747 0.046-3.717c0.038-0.896 0.188-1.384 0.313-1.708 0.166-0.43 0.365-0.737 0.686-1.059s0.627-0.522 1.057-0.69c0.324-0.127 0.811-0.277 1.707-0.32 0.97-0.046 1.261-0.056 3.717-0.061s2.747 0.004 3.718 0.047c0.896 0.039 1.384 0.187 1.708 0.313 0.43 0.166 0.737 0.365 1.059 0.686s0.523 0.627 0.69 1.057c0.127 0.323 0.277 0.81 0.32 1.707 0.046 0.97 0.057 1.261 0.061 3.717s-0.004 2.747-0.047 3.717c-0.039 0.897-0.188 1.384-0.313 1.709-0.166 0.43-0.365 0.736-0.686 1.059-0.321 0.322-0.627 0.522-1.057 0.69-0.324 0.126-0.811 0.277-1.707 0.32-0.97 0.046-1.261 0.056-3.718 0.060s-2.746-0.004-3.717-0.046zM11.79 6.464c-0.979 0.046-1.647 0.203-2.232 0.432-0.605 0.236-1.117 0.552-1.627 1.064s-0.824 1.026-1.058 1.631c-0.226 0.586-0.38 1.255-0.423 2.234-0.043 0.981-0.053 1.294-0.048 3.793s0.016 2.812 0.063 3.793c0.047 0.979 0.203 1.647 0.432 2.231 0.236 0.605 0.552 1.117 1.064 1.628s1.026 0.824 1.632 1.058c0.585 0.226 1.254 0.38 2.234 0.423 0.981 0.043 1.295 0.053 3.792 0.048 2.499-0.005 2.812-0.016 3.793-0.062 0.979-0.047 1.647-0.204 2.232-0.432 0.605-0.237 1.118-0.552 1.628-1.064s0.824-1.026 1.058-1.632c0.227-0.585 0.381-1.254 0.423-2.233 0.043-0.982 0.053-1.296 0.048-3.793s-0.016-2.811-0.063-3.792c-0.046-0.98-0.203-1.648-0.432-2.232-0.236-0.605-0.552-1.117-1.064-1.628s-1.026-0.824-1.632-1.058c-0.585-0.227-1.254-0.381-2.234-0.423-0.981-0.044-1.295-0.053-3.793-0.048s-2.811 0.016-3.792 0.063z"></path>
</symbol>
<symbol id="icon-viber" viewBox="0 0 32 32">
<path fill="#fffcff" style="fill: var(--color1, #fffcff)" d="M32 16c0 8.837-7.163 16-16 16s-16-7.163-16-16c0-8.837 7.163-16 16-16s16 7.163 16 16z"></path>
<path fill="#ef7568" style="fill: var(--color2, #ef7568)" d="M25.399 6.497c-0.636-0.587-3.207-2.454-8.933-2.478 0 0-6.753-0.407-10.045 2.612-1.832 1.833-2.478 4.515-2.545 7.839-0.069 3.325-0.156 9.556 5.85 11.246h0.006l-0.004 2.578c0 0-0.038 1.044 0.649 1.257 0.831 0.258 1.319-0.535 2.113-1.391 0.436-0.469 1.037-1.159 1.49-1.686 4.108 0.346 7.267-0.444 7.626-0.561 0.829-0.269 5.522-0.87 6.286-7.101 0.788-6.422-0.381-10.484-2.494-12.315zM16.952 18.663c0 0 0.455 0.038 0.7-0.264l0.478-0.601c0.23-0.298 0.787-0.488 1.331-0.185 0.408 0.232 0.805 0.487 1.187 0.759 0.362 0.266 1.102 0.884 1.104 0.884 0.352 0.298 0.434 0.734 0.194 1.196 0 0.003-0.002 0.008-0.002 0.010-0.264 0.458-0.6 0.872-0.994 1.224-0.004 0.002-0.004 0.004-0.009 0.007-0.342 0.287-0.679 0.449-1.009 0.489-0.038 0.006-0.077 0.010-0.116 0.010-0.010 0-0.022-0.001-0.032-0.001h-0.013c-0.141 0-0.282-0.022-0.416-0.066l-0.011-0.016c-0.51-0.144-1.36-0.503-2.776-1.284-0.82-0.447-1.6-0.962-2.332-1.542-0.368-0.287-0.72-0.6-1.050-0.929l-0.071-0.071-0-0.001-0.036-0.035-0.036-0.035c-0.33-0.331-0.641-0.681-0.93-1.049-0.574-0.73-1.096-1.516-1.54-2.333-0.782-1.416-1.141-2.266-1.285-2.776l-0.016-0.011c-0.043-0.134-0.066-0.274-0.066-0.416v-0.014c-0-0.011-0-0.023-0-0.035 0-0.038 0.003-0.076 0.010-0.112 0.042-0.33 0.204-0.667 0.489-1.011 0.003-0.004 0.005-0.004 0.007-0.009 0.353-0.395 0.766-0.73 1.225-0.994 0.002 0 0.007-0.002 0.010-0.002 0.461-0.24 0.898-0.159 1.196 0.192 0.002 0.002 0.619 0.743 0.884 1.104 0.271 0.381 0.526 0.78 0.758 1.188 0.303 0.544 0.113 1.101-0.185 1.331l-0.601 0.478c-0.304 0.245-0.264 0.7-0.264 0.7s0.89 3.371 4.218 4.221zM22.508 15.546c0 0.179-0.144 0.324-0.322 0.324-0.086 0-0.168-0.033-0.228-0.094s-0.095-0.142-0.096-0.228c-0.008-0.986-0.158-1.866-0.452-2.64-0.289-0.764-0.72-1.424-1.291-1.981-0.574-0.56-1.218-0.98-1.932-1.264-0.718-0.284-1.506-0.429-2.364-0.435-0.042-0-0.084-0.009-0.123-0.025s-0.075-0.040-0.104-0.070c-0.030-0.030-0.053-0.066-0.070-0.105s-0.024-0.081-0.024-0.124c0-0.042 0.009-0.084 0.025-0.123s0.040-0.075 0.070-0.104c0.030-0.030 0.066-0.054 0.105-0.070s0.081-0.024 0.124-0.024c0.944 0.006 1.81 0.166 2.598 0.478 0.793 0.314 1.508 0.782 2.145 1.403 0.64 0.624 1.122 1.363 1.446 2.216 0.32 0.843 0.484 1.798 0.492 2.865zM20.806 14.889c-0.003 0.178-0.15 0.319-0.328 0.316-0.042-0.001-0.084-0.010-0.123-0.027s-0.074-0.041-0.103-0.072-0.052-0.067-0.068-0.106c-0.015-0.039-0.023-0.082-0.022-0.124 0.024-1.098-0.299-2.012-0.967-2.742-0.333-0.364-0.732-0.647-1.197-0.85-0.472-0.206-1.013-0.33-1.625-0.375-0.178-0.013-0.312-0.167-0.299-0.346 0.003-0.042 0.014-0.084 0.033-0.122s0.045-0.072 0.077-0.1c0.032-0.028 0.069-0.049 0.11-0.062s0.083-0.019 0.125-0.016c0.685 0.050 1.297 0.192 1.838 0.428 0.547 0.239 1.018 0.574 1.414 1.007 0.785 0.858 1.164 1.921 1.136 3.19zM19.146 14.31c0.004 0.086-0.026 0.169-0.084 0.232s-0.138 0.101-0.224 0.105c-0.042 0.002-0.085-0.004-0.125-0.019s-0.077-0.036-0.108-0.065c-0.031-0.029-0.057-0.063-0.075-0.101s-0.028-0.080-0.030-0.122c-0.028-0.553-0.174-0.968-0.441-1.244-0.263-0.272-0.659-0.422-1.188-0.449-0.042-0.002-0.084-0.013-0.122-0.031s-0.073-0.044-0.101-0.075c-0.028-0.031-0.050-0.068-0.065-0.108s-0.020-0.082-0.018-0.125c0.010-0.178 0.161-0.316 0.339-0.306 0.698 0.036 1.239 0.252 1.621 0.647 0.378 0.391 0.585 0.945 0.621 1.661zM26.095 18.352c-0.644 5.202-4.451 5.529-5.153 5.754-0.298 0.096-3.073 0.786-6.562 0.559 0 0-2.6 3.136-3.412 3.952-0.127 0.127-0.276 0.179-0.376 0.153-0.14-0.034-0.178-0.199-0.176-0.441 0.002-0.346 0.022-4.284 0.022-4.284-5.081-1.411-4.785-6.714-4.727-9.492s0.58-5.052 2.129-6.582c2.784-2.522 8.52-2.145 8.52-2.145 4.844 0.021 7.165 1.479 7.703 1.968 1.787 1.53 2.698 5.191 2.032 10.555v0.002z"></path>
</symbol>
<symbol id="icon-tg" viewBox="0 0 32 32">
<path fill="#fffcff" style="fill: var(--color1, #fffcff)" d="M16 32c8.837 0 16-7.163 16-16s-7.163-16-16-16c-8.837 0-16 7.163-16 16s7.163 16 16 16z"></path>
<path fill="#ef7568" style="fill: var(--color2, #ef7568)" d="M23.954 10.111l-2.414 12.22c-0.182 0.862-0.657 1.077-1.332 0.671l-3.679-2.909-1.775 1.832c-0.196 0.211-0.361 0.387-0.739 0.387l0.264-4.021 6.818-6.612c0.296-0.284-0.064-0.441-0.461-0.157l-8.429 5.696-3.629-1.219c-0.789-0.264-0.804-0.847 0.164-1.253l14.194-5.868c0.657-0.264 1.232 0.157 1.018 1.234z"></path>
</symbol>
</defs>
</svg>
